<svg width="20" height="20" viewBox="0 0 20 20" fill="none" xmlns="http://www.w3.org/2000/svg">
<path fill-rule="evenodd" clip-rule="evenodd" d="M10 2.5C8.61929 2.5 7.5 3.61929 7.5 5C7.5 6.38071 8.61929 7.5 10 7.5C11.3807 7.5 12.5 6.38071 12.5 5C12.5 3.61929 11.3807 2.5 10 2.5ZM6.25 5C6.25 2.92893 7.92893 1.25 10 1.25C12.0711 1.25 13.75 2.92893 13.75 5C13.75 7.07107 12.0711 8.75 10 8.75C7.92893 8.75 6.25 7.07107 6.25 5ZM4.39758 16.3674C6.1186 17.0965 8.01158 17.5 10.0003 17.5C11.9888 17.5 13.8816 17.0966 15.6024 16.3676C15.3461 13.4989 12.9356 11.25 10 11.25C7.06448 11.25 4.65406 13.4988 4.39758 16.3674ZM3.12604 16.7544C3.19049 13.013 6.24332 10 10 10C13.7568 10 16.8097 13.0131 16.874 16.7547C16.8782 17.0028 16.7353 17.23 16.5097 17.3335C14.5273 18.2432 12.3221 18.75 10.0003 18.75C7.67822 18.75 5.47286 18.2431 3.49027 17.3332C3.26471 17.2297 3.12176 17.0026 3.12604 16.7544Z" fill="#27272A"/>
</svg>
