<svg width="20" height="20" viewBox="0 0 20 20" fill="none" xmlns="http://www.w3.org/2000/svg">
<path fill-rule="evenodd" clip-rule="evenodd" d="M1.875 3.4375C1.875 2.57456 2.57456 1.875 3.4375 1.875H7.8125C8.67544 1.875 9.375 2.57456 9.375 3.4375V5.3217L10.7073 3.98937C11.3175 3.37918 12.3068 3.37918 12.917 3.98937L16.0106 7.08296C16.6208 7.69316 16.6208 8.68248 16.0106 9.29267L14.6783 10.625H16.5625C17.4254 10.625 18.125 11.3246 18.125 12.1875V16.5625C18.125 17.4254 17.4254 18.125 16.5625 18.125H5.625C4.59569 18.125 3.66324 17.7103 2.98562 17.0389C2.2998 16.3593 1.875 15.4168 1.875 14.375V3.4375ZM3.85723 16.1428C3.85693 16.1425 3.85664 16.1422 3.85634 16.1419C3.40445 15.6895 3.125 15.0649 3.125 14.375V3.4375C3.125 3.26491 3.26491 3.125 3.4375 3.125H7.8125C7.98509 3.125 8.125 3.26491 8.125 3.4375V14.375C8.125 15.0648 7.84562 15.6894 7.39384 16.1417C7.39348 16.142 7.39313 16.1424 7.39277 16.1428C7.39005 16.1455 7.38732 16.1482 7.38459 16.1509C6.64815 16.8807 5.57087 17.0588 4.66804 16.6853C4.3698 16.5616 4.10068 16.3819 3.87383 16.1592C3.86828 16.1538 3.86275 16.1483 3.85723 16.1428ZM8.4283 16.875H16.5625C16.7351 16.875 16.875 16.7351 16.875 16.5625V12.1875C16.875 12.0149 16.7351 11.875 16.5625 11.875H13.4283L8.4283 16.875ZM9.375 14.1605L15.1267 8.40879C15.2488 8.28675 15.2488 8.08888 15.1267 7.96685L12.0332 4.87325C11.9111 4.75121 11.7133 4.75121 11.5912 4.87325L9.375 7.08947V14.1605ZM5 14.375C5 14.0298 5.27982 13.75 5.625 13.75H5.63125C5.97643 13.75 6.25625 14.0298 6.25625 14.375V14.3812C6.25625 14.7264 5.97643 15.0062 5.63125 15.0062H5.625C5.27982 15.0062 5 14.7264 5 14.3812V14.375Z" fill="#27272A"/>
</svg>
