<svg width="25" height="24" viewBox="0 0 25 24" fill="none" xmlns="http://www.w3.org/2000/svg">
<path fill-rule="evenodd" clip-rule="evenodd" d="M12.6001 4.5C11.3575 4.5 10.3501 5.50736 10.3501 6.75C10.3501 7.99264 11.3575 9 12.6001 9C13.8427 9 14.8501 7.99264 14.8501 6.75C14.8501 5.50736 13.8427 4.5 12.6001 4.5ZM8.8501 6.75C8.8501 4.67893 10.529 3 12.6001 3C14.6712 3 16.3501 4.67893 16.3501 6.75C16.3501 8.82107 14.6712 10.5 12.6001 10.5C10.529 10.5 8.8501 8.82107 8.8501 6.75ZM5.8501 8.25C5.02167 8.25 4.3501 8.92157 4.3501 9.75C4.3501 10.5784 5.02167 11.25 5.8501 11.25C6.67852 11.25 7.3501 10.5784 7.3501 9.75C7.3501 8.92157 6.67852 8.25 5.8501 8.25ZM2.8501 9.75C2.8501 8.09315 4.19324 6.75 5.8501 6.75C7.50695 6.75 8.8501 8.09315 8.8501 9.75C8.8501 11.4069 7.50695 12.75 5.8501 12.75C4.19324 12.75 2.8501 11.4069 2.8501 9.75ZM19.3501 8.25C18.5217 8.25 17.8501 8.92157 17.8501 9.75C17.8501 10.5784 18.5217 11.25 19.3501 11.25C20.1785 11.25 20.8501 10.5784 20.8501 9.75C20.8501 8.92157 20.1785 8.25 19.3501 8.25ZM16.3501 9.75C16.3501 8.09315 17.6932 6.75 19.3501 6.75C21.007 6.75 22.3501 8.09315 22.3501 9.75C22.3501 11.4069 21.007 12.75 19.3501 12.75C17.6932 12.75 16.3501 11.4069 16.3501 9.75ZM12.6001 13.5C10.7413 13.5 9.10757 14.4654 8.17362 15.9257C7.65683 16.7337 7.35534 17.6923 7.35017 18.723L7.3501 18.75C7.3501 18.8186 7.35141 18.8868 7.354 18.9547C8.9197 19.7816 10.7042 20.25 12.6001 20.25C14.496 20.25 16.2805 19.7816 17.8462 18.9547C17.8488 18.8868 17.8501 18.8186 17.8501 18.75L17.85 18.7229C17.8449 17.6924 17.5435 16.7341 17.0269 15.9262C16.093 14.4656 14.4591 13.5 12.6001 13.5ZM19.3088 19.4999C19.282 19.7371 19.1439 19.9473 18.9368 20.0662C17.0695 21.1376 14.9052 21.75 12.6001 21.75C10.295 21.75 8.13069 21.1376 6.26334 20.0662C6.05627 19.9473 5.91817 19.7371 5.89136 19.4999C5.87786 19.5 5.86435 19.5 5.85083 19.5C4.71647 19.5 3.62582 19.306 2.61126 18.9487C2.33164 18.8502 2.13627 18.5963 2.11275 18.3007C2.10485 18.2014 2.10083 18.1011 2.10083 18C2.10083 15.9289 3.77976 14.25 5.85083 14.25C6.37057 14.25 6.86653 14.3561 7.31739 14.5478C8.5532 12.9963 10.4601 12 12.6001 12C14.7403 12 16.6473 12.9965 17.8831 14.5482C18.3343 14.3563 18.8306 14.25 19.3507 14.25C21.4217 14.25 23.1007 15.9289 23.1007 18C23.1007 18.1011 23.0967 18.2014 23.0887 18.3007C23.0652 18.5963 22.8699 18.8502 22.5902 18.9487C21.5757 19.306 20.485 19.5 19.3507 19.5C19.3367 19.5 19.3228 19.5 19.3088 19.4999ZM18.6954 15.8467C19.0127 16.5118 19.2244 17.237 19.3088 17.9999C19.3228 18 19.3367 18 19.3507 18C20.1241 18 20.8717 17.8938 21.5802 17.6954C21.4316 16.5968 20.49 15.75 19.3507 15.75C19.1223 15.75 18.9024 15.7838 18.6954 15.8467ZM6.505 15.8464C6.29827 15.7837 6.07875 15.75 5.85083 15.75C4.7115 15.75 3.76995 16.5968 3.62127 17.6954C4.32975 17.8938 5.07736 18 5.85083 18C5.86435 18 5.87786 18 5.89137 17.9999C5.97583 17.2369 6.1876 16.5116 6.505 15.8464Z" fill="black"/>
</svg>
