<svg width="16" height="16" viewBox="0 0 16 16" fill="none" xmlns="http://www.w3.org/2000/svg">
<path fill-rule="evenodd" clip-rule="evenodd" d="M7.74806 1.06811C7.90375 0.977296 8.09625 0.977296 8.25194 1.06811L9.75194 1.94311C9.99046 2.08225 10.071 2.38841 9.93189 2.62694C9.79275 2.86546 9.48659 2.94603 9.24806 2.80689L8 2.07885L6.75194 2.80689C6.51341 2.94603 6.20725 2.86546 6.06811 2.62694C5.92897 2.38841 6.00954 2.08225 6.24806 1.94311L7.74806 1.06811ZM3.93189 3.87306C4.07103 4.11159 3.99046 4.41775 3.75194 4.55689L2.99232 5L3.75194 5.44311C3.99046 5.58225 4.07103 5.88841 3.93189 6.12694C3.79275 6.36546 3.48659 6.44603 3.24806 6.30689L2.5 5.87052V6.5C2.5 6.77614 2.27614 7 2 7C1.72386 7 1.5 6.77614 1.5 6.5V5C1.5 4.82217 1.59446 4.65772 1.74806 4.56811L3.24806 3.69311C3.48659 3.55397 3.79275 3.63454 3.93189 3.87306ZM12.0681 3.87306C12.2073 3.63454 12.5134 3.55397 12.7519 3.69311L14.2519 4.56811C14.4055 4.65772 14.5 4.82217 14.5 5V6.5C14.5 6.77614 14.2761 7 14 7C13.7239 7 13.5 6.77614 13.5 6.5V5.87052L12.7519 6.30689C12.5134 6.44603 12.2073 6.36546 12.0681 6.12694C11.929 5.88841 12.0095 5.58225 12.2481 5.44311L13.0077 5L12.2481 4.55689C12.0095 4.41775 11.929 4.11159 12.0681 3.87306ZM6.06811 7.37306C6.20725 7.13454 6.51341 7.05397 6.75194 7.19311L8 7.92115L9.24806 7.19311C9.48659 7.05397 9.79275 7.13454 9.93189 7.37306C10.071 7.61159 9.99046 7.91775 9.75194 8.05689L8.5 8.78719V10C8.5 10.2761 8.27614 10.5 8 10.5C7.72386 10.5 7.5 10.2761 7.5 10V8.78719L6.24806 8.05689C6.00954 7.91775 5.92897 7.61159 6.06811 7.37306ZM2 9C2.27614 9 2.5 9.22386 2.5 9.5V10.7128L3.75194 11.4431C3.99046 11.5823 4.07103 11.8884 3.93189 12.1269C3.79275 12.3655 3.48659 12.446 3.24806 12.3069L1.74806 11.4319C1.59446 11.3423 1.5 11.1778 1.5 11V9.5C1.5 9.22386 1.72386 9 2 9ZM14 9C14.2761 9 14.5 9.22386 14.5 9.5V11C14.5 11.1778 14.4055 11.3423 14.2519 11.4319L12.7519 12.3069C12.5134 12.446 12.2073 12.3655 12.0681 12.1269C11.929 11.8884 12.0095 11.5823 12.2481 11.4431L13.5 10.7128V9.5C13.5 9.22386 13.7239 9 14 9ZM8 12.5C8.27614 12.5 8.5 12.7239 8.5 13V13.6295L9.24806 13.1931C9.48659 13.054 9.79275 13.1345 9.93189 13.3731C10.071 13.6116 9.99046 13.9177 9.75194 14.0569L8.25194 14.9319C8.09625 15.0227 7.90375 15.0227 7.74806 14.9319L6.24806 14.0569C6.00954 13.9177 5.92897 13.6116 6.06811 13.3731C6.20725 13.1345 6.51341 13.054 6.75194 13.1931L7.5 13.6295V13C7.5 12.7239 7.72386 12.5 8 12.5Z" fill="black"/>
</svg>
