<svg width="20" height="20" viewBox="0 0 20 20" fill="none" xmlns="http://www.w3.org/2000/svg">
<path fill-rule="evenodd" clip-rule="evenodd" d="M12.5 3.125C12.5 2.77982 12.7798 2.5 13.125 2.5L16.875 2.5C17.2202 2.5 17.5 2.77982 17.5 3.125V6.875C17.5 7.22018 17.2202 7.5 16.875 7.5C16.5298 7.5 16.25 7.22018 16.25 6.875V4.63388L12.9419 7.94194C12.6979 8.18602 12.3021 8.18602 12.0581 7.94194C11.814 7.69786 11.814 7.30214 12.0581 7.05806L15.3661 3.75L13.125 3.75C12.7798 3.75 12.5 3.47018 12.5 3.125ZM2.5 3.125C2.5 2.77982 2.77982 2.5 3.125 2.5H6.875C7.22018 2.5 7.5 2.77982 7.5 3.125C7.5 3.47018 7.22018 3.75 6.875 3.75H4.63388L7.94194 7.05806C8.18602 7.30214 8.18602 7.69786 7.94194 7.94194C7.69786 8.18602 7.30214 8.18602 7.05806 7.94194L3.75 4.63388V6.875C3.75 7.22018 3.47018 7.5 3.125 7.5C2.77982 7.5 2.5 7.22018 2.5 6.875V3.125ZM7.94194 12.0581C8.18602 12.3021 8.18602 12.6979 7.94194 12.9419L4.63388 16.25H6.875C7.22018 16.25 7.5 16.5298 7.5 16.875C7.5 17.2202 7.22018 17.5 6.875 17.5H3.125C2.77982 17.5 2.5 17.2202 2.5 16.875V13.125C2.5 12.7798 2.77982 12.5 3.125 12.5C3.47018 12.5 3.75 12.7798 3.75 13.125V15.3661L7.05806 12.0581C7.30214 11.814 7.69786 11.814 7.94194 12.0581ZM12.0581 12.0581C12.3021 11.814 12.6979 11.814 12.9419 12.0581L16.25 15.3661V13.125C16.25 12.7798 16.5298 12.5 16.875 12.5C17.2202 12.5 17.5 12.7798 17.5 13.125V16.875C17.5 17.2202 17.2202 17.5 16.875 17.5H13.125C12.7798 17.5 12.5 17.2202 12.5 16.875C12.5 16.5298 12.7798 16.25 13.125 16.25H15.3661L12.0581 12.9419C11.814 12.6979 11.814 12.3021 12.0581 12.0581Z" fill="#09090B"/>
</svg>
