<svg width="20" height="20" viewBox="0 0 20 20" fill="none" xmlns="http://www.w3.org/2000/svg">
<path fill-rule="evenodd" clip-rule="evenodd" d="M2.0584 2.05806C2.30248 1.81398 2.69821 1.81398 2.94228 2.05806L5.28166 4.39744C6.66797 3.58848 8.2808 3.125 10.0003 3.125C14.2477 3.125 17.8338 5.94899 18.9866 9.8204C19.0213 9.93672 19.0213 10.0606 18.9867 10.177C18.4248 12.0659 17.2845 13.7043 15.7719 14.8877L17.9423 17.0581C18.1864 17.3021 18.1864 17.6979 17.9423 17.9419C17.6982 18.186 17.3025 18.186 17.0584 17.9419L2.0584 2.94194C1.81432 2.69786 1.81432 2.30214 2.0584 2.05806ZM14.8805 13.9962C16.2044 12.9998 17.2136 11.6085 17.7333 9.99886C16.6784 6.73481 13.6142 4.375 10.0003 4.375C8.62677 4.375 7.33403 4.71538 6.20052 5.31629L8.27704 7.39282C8.77096 7.06583 9.36369 6.875 10.0003 6.875C11.7262 6.875 13.1253 8.27411 13.1253 10C13.1253 10.6367 12.9345 11.2294 12.6075 11.7233L14.8805 13.9962ZM11.6927 10.8085C11.8099 10.5637 11.8753 10.2897 11.8753 10C11.8753 8.96447 11.0359 8.125 10.0003 8.125C9.71064 8.125 9.4366 8.19044 9.19184 8.30761L11.6927 10.8085ZM3.7206 6.37497C3.98413 6.5979 4.01705 6.99226 3.79412 7.25579C3.11874 8.0542 2.59501 8.98409 2.26665 10.0011C3.32151 13.2652 6.38575 15.625 9.99959 15.625C10.7687 15.625 11.5118 15.5183 12.2155 15.3193C12.5476 15.2254 12.893 15.4185 12.987 15.7507C13.0809 16.0828 12.8878 16.4282 12.5556 16.5222C11.7424 16.7521 10.8848 16.875 9.99959 16.875C5.75225 16.875 2.16611 14.051 1.0133 10.1796C0.978658 10.0633 0.97864 9.93938 1.01324 9.82304C1.38676 8.56734 2.01592 7.42242 2.83978 6.4485C3.06271 6.18496 3.45706 6.15204 3.7206 6.37497Z" fill="#27272A"/>
</svg>
