<svg width="20" height="20" viewBox="0 0 20 20" fill="none" xmlns="http://www.w3.org/2000/svg">
<path fill-rule="evenodd" clip-rule="evenodd" d="M8.75 4.375C6.67893 4.375 5 6.05393 5 8.125C5 8.36379 5.02224 8.59681 5.06459 8.82228C5.12242 9.13012 4.94344 9.43322 4.64596 9.53126C3.39886 9.94225 2.5 11.117 2.5 12.5C2.5 14.2259 3.89911 15.625 5.625 15.625H15C16.3807 15.625 17.5 14.5057 17.5 13.125C17.5 12.0579 16.8312 11.1455 15.8877 10.787C15.5709 10.6666 15.4078 10.3157 15.5199 9.99589C15.5878 9.80238 15.625 9.5937 15.625 9.375C15.625 8.33947 14.7855 7.5 13.75 7.5C13.5469 7.5 13.3525 7.53208 13.1709 7.59097C13.0077 7.64389 12.8299 7.62741 12.6792 7.5454C12.5286 7.46338 12.4182 7.32303 12.3741 7.15725C11.9475 5.5548 10.4857 4.375 8.75 4.375ZM3.75 8.125C3.75 5.36358 5.98858 3.125 8.75 3.125C10.8566 3.125 12.6578 4.42735 13.3944 6.27007C13.5113 6.2568 13.6299 6.25 13.75 6.25C15.4759 6.25 16.875 7.64911 16.875 9.375C16.875 9.53827 16.8624 9.69887 16.8381 9.85582C17.9787 10.4984 18.75 11.721 18.75 13.125C18.75 15.1961 17.0711 16.875 15 16.875H5.625C3.20875 16.875 1.25 14.9162 1.25 12.5C1.25 10.7474 2.28022 9.23671 3.76687 8.53825C3.75569 8.40187 3.75 8.26405 3.75 8.125ZM10 7.5C10.3452 7.5 10.625 7.77982 10.625 8.125V12.2411L12.0581 10.8081C12.3021 10.564 12.6979 10.564 12.9419 10.8081C13.186 11.0521 13.186 11.4479 12.9419 11.6919L10.4419 14.1919C10.1979 14.436 9.80214 14.436 9.55806 14.1919L7.05806 11.6919C6.81398 11.4479 6.81398 11.0521 7.05806 10.8081C7.30214 10.564 7.69786 10.564 7.94194 10.8081L9.375 12.2411V8.125C9.375 7.77982 9.65482 7.5 10 7.5Z" fill="#71717A"/>
</svg>
