<svg width="16" height="16" viewBox="0 0 16 16" fill="none" xmlns="http://www.w3.org/2000/svg">
<path fill-rule="evenodd" clip-rule="evenodd" d="M8 2.5C4.96243 2.5 2.5 4.96243 2.5 8C2.5 11.0376 4.96243 13.5 8 13.5C11.0376 13.5 13.5 11.0376 13.5 8C13.5 4.96243 11.0376 2.5 8 2.5ZM1.5 8C1.5 4.41015 4.41015 1.5 8 1.5C11.5899 1.5 14.5 4.41015 14.5 8C14.5 11.5899 11.5899 14.5 8 14.5C4.41015 14.5 1.5 11.5899 1.5 8ZM8 3.5C8.27614 3.5 8.5 3.72386 8.5 4V7.5H11C11.2761 7.5 11.5 7.72386 11.5 8C11.5 8.27614 11.2761 8.5 11 8.5H8C7.72386 8.5 7.5 8.27614 7.5 8V4C7.5 3.72386 7.72386 3.5 8 3.5Z" fill="#71717A"/>
</svg>
