<svg width="25" height="24" viewBox="0 0 25 24" fill="none" xmlns="http://www.w3.org/2000/svg">
<path fill-rule="evenodd" clip-rule="evenodd" d="M15.8195 6.26791C15.968 5.88121 16.4018 5.68806 16.7885 5.8365L22.7298 8.11714C23.1165 8.26558 23.3096 8.6994 23.1612 9.0861L20.8805 15.0274C20.7321 15.4141 20.2983 15.6072 19.9116 15.4588C19.5249 15.3103 19.3317 14.8765 19.4802 14.4898L21.1119 10.2389L20.0254 10.7227C17.5722 11.8149 15.7037 13.6757 14.5751 15.8962C14.4663 16.1104 14.2615 16.2594 14.0242 16.2971C13.787 16.3348 13.546 16.2566 13.3762 16.0867L9.6001 12.3107L3.38043 18.5303C3.08753 18.8232 2.61266 18.8232 2.31977 18.5303C2.02687 18.2374 2.02687 17.7626 2.31977 17.4697L9.06977 10.7197C9.21042 10.579 9.40118 10.5 9.6001 10.5C9.79901 10.5 9.98978 10.579 10.1304 10.7197L13.7364 14.3257C15.037 12.2045 16.9712 10.4406 19.4153 9.35238L20.5018 8.86863L16.2509 7.23687C15.8642 7.08843 15.6711 6.65461 15.8195 6.26791Z" fill="black"/>
</svg>
