<svg width="20" height="20" viewBox="0 0 20 20" fill="none" xmlns="http://www.w3.org/2000/svg">
<path fill-rule="evenodd" clip-rule="evenodd" d="M6.87798 3.61228C6.95005 1.95029 8.32026 0.625 10 0.625C11.7259 0.625 13.125 2.02411 13.125 3.75V10.625C13.125 11.4903 12.7734 12.2734 12.2052 12.8392L12.8455 13.9483C13.7818 13.1459 14.375 11.9547 14.375 10.625V9.375C14.375 9.02982 14.6548 8.75 15 8.75C15.3452 8.75 15.625 9.02982 15.625 9.375V10.625C15.625 12.4182 14.7859 14.0154 13.4789 15.0454L15.6143 18.744C15.7869 19.0429 15.6844 19.4252 15.3855 19.5978C15.0866 19.7703 14.7043 19.6679 14.5317 19.369L4.47917 1.95741C4.30658 1.65848 4.409 1.27623 4.70793 1.10364C5.00687 0.931054 5.38911 1.03348 5.5617 1.33241L6.87798 3.61228ZM8.125 5.77218L11.5424 11.6914C11.7521 11.3886 11.875 11.0212 11.875 10.625V3.75C11.875 2.71447 11.0355 1.875 10 1.875C8.96447 1.875 8.125 2.71447 8.125 3.75V5.77218Z" fill="#FAFAFA"/>
<path d="M9.57588 12.4518L10.3163 13.7342C10.2123 13.7446 10.1068 13.75 10 13.75C8.27411 13.75 6.875 12.3509 6.875 10.625V7.77377L8.125 9.93884V10.625C8.125 11.5147 8.74463 12.2596 9.57588 12.4518Z" fill="#FAFAFA"/>
<path d="M11.6303 16.0101L10.983 14.8891C10.6671 14.9617 10.338 15 10 15C7.58375 15 5.625 13.0412 5.625 10.625V9.375C5.625 9.02982 5.34518 8.75 5 8.75C4.65482 8.75 4.375 9.02982 4.375 9.375V10.625C4.375 13.5203 6.56253 15.9048 9.375 16.2157V18.125H6.875C6.52982 18.125 6.25 18.4048 6.25 18.75C6.25 19.0952 6.52982 19.375 6.875 19.375H13.125C13.2715 19.375 13.4063 19.3246 13.5128 19.2401C13.4694 19.1852 13.4294 19.1264 13.3934 19.064L12.8513 18.125H10.625V16.2157C10.9705 16.1775 11.3065 16.108 11.6303 16.0101Z" fill="#FAFAFA"/>
</svg>
