<svg width="16" height="16" viewBox="0 0 16 16" fill="none" xmlns="http://www.w3.org/2000/svg">
<path fill-rule="evenodd" clip-rule="evenodd" d="M8.8658 2.50199C8.48097 1.83495 7.51826 1.83495 7.13343 2.50199L2.23055 11.0003C1.84593 11.667 2.32707 12.5 3.09673 12.5H12.9025C13.6722 12.5 14.1533 11.667 13.7687 11.0003L8.8658 2.50199ZM6.26725 2.00226C7.0369 0.668191 8.96233 0.66819 9.73199 2.00226L14.6349 10.5006C15.4041 11.8339 14.4418 13.5 12.9025 13.5H3.09673C1.55742 13.5 0.59513 11.8339 1.36436 10.5006L6.26725 2.00226ZM7.99962 5.50004C8.27576 5.50004 8.49962 5.7239 8.49962 6.00004V8.50004C8.49962 8.77618 8.27576 9.00004 7.99962 9.00004C7.72347 9.00004 7.49962 8.77618 7.49962 8.50004V6.00004C7.49962 5.7239 7.72347 5.50004 7.99962 5.50004ZM7.49962 10.5C7.49962 10.2239 7.72347 10 7.99962 10H8.00462C8.28076 10 8.50462 10.2239 8.50462 10.5V10.505C8.50462 10.7812 8.28076 11.005 8.00462 11.005H7.99962C7.72347 11.005 7.49962 10.7812 7.49962 10.505V10.5Z" fill="#71717A"/>
</svg>
