<svg width="16" height="16" viewBox="0 0 16 16" fill="none" xmlns="http://www.w3.org/2000/svg">
<path fill-rule="evenodd" clip-rule="evenodd" d="M1 5C1 3.89543 1.89543 3 3 3H9C10.1046 3 11 3.89543 11 5V5.79289L13.2929 3.5C13.9229 2.87003 15 3.3162 15 4.20711V11.7929C15 12.6838 13.9229 13.13 13.2929 12.5L11 10.2071V11C11 12.1046 10.1046 13 9 13H3C1.89543 13 1 12.1046 1 11V5ZM11 8.79289L14 11.7929V4.20711L11 7.20711V8.79289ZM3 4C2.44772 4 2 4.44772 2 5V11C2 11.5523 2.44772 12 3 12H9C9.55229 12 10 11.5523 10 11V5C10 4.44772 9.55229 4 9 4H3Z" fill="#71717A"/>
</svg>
