<svg width="20" height="21" viewBox="0 0 20 21" fill="none" xmlns="http://www.w3.org/2000/svg">
<path fill-rule="evenodd" clip-rule="evenodd" d="M10.0001 2.89905C9.54373 2.89905 9.08908 2.90635 8.63626 2.92083C8.00742 2.94095 7.5001 3.46899 7.5001 4.13087V4.22473C8.32707 4.17452 9.16065 4.14905 10.0001 4.14905C10.8396 4.14905 11.6731 4.17452 12.5001 4.22473V4.13087C12.5001 3.46899 11.9928 2.94095 11.3639 2.92083C10.9111 2.90635 10.4565 2.89905 10.0001 2.89905ZM13.7501 4.31986V4.13087C13.7501 2.82714 12.7397 1.7142 11.4039 1.67147C10.9378 1.65656 10.4698 1.64905 10.0001 1.64905C9.5304 1.64905 9.06242 1.65656 8.5963 1.67147C7.26054 1.7142 6.2501 2.82714 6.2501 4.13087V4.31986C5.4545 4.39269 4.66548 4.48847 3.88373 4.60653C3.59429 4.65024 3.30584 4.69701 3.01843 4.74679C2.67831 4.80571 2.45036 5.12919 2.50927 5.4693C2.56819 5.80941 2.89167 6.03737 3.23178 5.97845C3.28978 5.9684 3.34783 5.95848 3.40592 5.94869L4.24377 16.8408C4.34397 18.1433 5.43007 19.149 6.73641 19.149H13.2638C14.5701 19.149 15.6562 18.1433 15.7564 16.8408L16.5943 5.94869C16.6524 5.95848 16.7104 5.9684 16.7684 5.97845C17.1085 6.03737 17.432 5.80941 17.4909 5.4693C17.5498 5.12919 17.3219 4.80571 16.9818 4.74679C16.6944 4.69701 16.4059 4.65024 16.1165 4.60653C15.3347 4.48847 14.5457 4.39269 13.7501 4.31986ZM15.3551 5.76006C14.6023 5.65771 13.8427 5.57664 13.0769 5.51746C12.0618 5.43901 11.0357 5.39905 10.0001 5.39905C8.96455 5.39905 7.93845 5.43901 6.92326 5.51746C6.15748 5.57664 5.39789 5.65771 4.6451 5.76006L5.49009 16.7449C5.54019 17.3962 6.08324 17.899 6.73641 17.899H13.2638C13.917 17.899 14.46 17.3962 14.5101 16.7449L15.3551 5.76006ZM7.69243 7.27451C8.03735 7.26124 8.32772 7.5301 8.34099 7.87503L8.62945 15.375C8.64271 15.7199 8.37385 16.0103 8.02893 16.0236C7.68401 16.0369 7.39364 15.768 7.38037 15.4231L7.09191 7.92307C7.07864 7.57815 7.3475 7.28778 7.69243 7.27451ZM12.3078 7.27451C12.6527 7.28778 12.9216 7.57815 12.9083 7.92307L12.6198 15.4231C12.6066 15.768 12.3162 16.0369 11.9713 16.0236C11.6264 16.0103 11.3575 15.7199 11.3708 15.375L11.6592 7.87503C11.6725 7.5301 11.9629 7.26124 12.3078 7.27451Z" fill="#27272A"/>
</svg>
