<svg width="25" height="24" viewBox="0 0 25 24" fill="none" xmlns="http://www.w3.org/2000/svg">
<path fill-rule="evenodd" clip-rule="evenodd" d="M12.5083 2C6.97396 2 2.5 6.58331 2.5 12.2535C2.5 16.786 5.36662 20.6226 9.34338 21.9805C9.84058 22.0826 10.0227 21.7599 10.0227 21.4885C10.0227 21.2508 10.0063 20.436 10.0063 19.587C7.22225 20.1983 6.64249 18.3647 6.64249 18.3647C6.19508 17.1764 5.53215 16.871 5.53215 16.871C4.62092 16.2429 5.59852 16.2429 5.59852 16.2429C6.6093 16.3108 7.13969 17.2954 7.13969 17.2954C8.03432 18.857 9.47592 18.4158 10.0559 18.1441C10.1386 17.482 10.4039 17.0237 10.6856 16.7691C8.46514 16.5314 6.12891 15.6487 6.12891 11.7102C6.12891 10.5898 6.52634 9.67309 7.15608 8.96018C7.05672 8.7056 6.70866 7.65289 7.25564 6.24394C7.25564 6.24394 8.10069 5.97228 10.0061 7.29644C10.8219 7.07199 11.6632 6.95782 12.5083 6.95685C13.3533 6.95685 14.2148 7.07581 15.0102 7.29644C16.9159 5.97228 17.7609 6.24394 17.7609 6.24394C18.3079 7.65289 17.9596 8.7056 17.8603 8.96018C18.5066 9.67309 18.8876 10.5898 18.8876 11.7102C18.8876 15.6487 16.5514 16.5143 14.3143 16.7691C14.679 17.0916 14.9936 17.7026 14.9936 18.6703C14.9936 20.0453 14.9773 21.1489 14.9773 21.4883C14.9773 21.7599 15.1596 22.0826 15.6566 21.9808C19.6333 20.6224 22.5 16.786 22.5 12.2535C22.5163 6.58331 18.026 2 12.5083 2Z" fill="#09090B"/>
</svg>
