<svg width="40" height="41" viewBox="0 0 40 41" fill="none" xmlns="http://www.w3.org/2000/svg">
<path fill-rule="evenodd" clip-rule="evenodd" d="M20 6.75C12.4061 6.75 6.25 12.9061 6.25 20.5C6.25 28.0939 12.4061 34.25 20 34.25C27.5939 34.25 33.75 28.0939 33.75 20.5C33.75 12.9061 27.5939 6.75 20 6.75ZM3.75 20.5C3.75 11.5254 11.0254 4.25 20 4.25C28.9746 4.25 36.25 11.5254 36.25 20.5C36.25 29.4746 28.9746 36.75 20 36.75C11.0254 36.75 3.75 29.4746 3.75 20.5ZM18.75 14.25C18.75 13.5596 19.3096 13 20 13H20.0125C20.7029 13 21.2625 13.5596 21.2625 14.25V14.2625C21.2625 14.9529 20.7029 15.5125 20.0125 15.5125H20C19.3096 15.5125 18.75 14.9529 18.75 14.2625V14.25ZM18.2601 18.0974C20.1705 17.1422 22.3215 18.8677 21.8035 20.9398L20.6218 25.6665L20.691 25.632C21.3084 25.3232 22.0593 25.5735 22.368 26.191C22.6768 26.8084 22.4265 27.5593 21.809 27.868L21.7399 27.9026C19.8295 28.8578 17.6785 27.1323 18.1965 25.0602L19.3782 20.3335L19.309 20.368C18.6915 20.6768 17.9407 20.4265 17.632 19.809C17.3232 19.1915 17.5735 18.4407 18.191 18.132L18.2601 18.0974Z" fill="#71717A"/>
</svg>
