<svg width="16" height="16" viewBox="0 0 16 16" fill="none" xmlns="http://www.w3.org/2000/svg">
<path fill-rule="evenodd" clip-rule="evenodd" d="M8 3C7.17157 3 6.5 3.67157 6.5 4.5C6.5 5.32843 7.17157 6 8 6C8.82843 6 9.5 5.32843 9.5 4.5C9.5 3.67157 8.82843 3 8 3ZM5.5 4.5C5.5 3.11929 6.61929 2 8 2C9.38071 2 10.5 3.11929 10.5 4.5C10.5 5.88071 9.38071 7 8 7C6.61929 7 5.5 5.88071 5.5 4.5ZM3.5 5.5C2.94772 5.5 2.5 5.94772 2.5 6.5C2.5 7.05229 2.94772 7.5 3.5 7.5C4.05228 7.5 4.5 7.05229 4.5 6.5C4.5 5.94772 4.05228 5.5 3.5 5.5ZM1.5 6.5C1.5 5.39543 2.39543 4.5 3.5 4.5C4.60457 4.5 5.5 5.39543 5.5 6.5C5.5 7.60457 4.60457 8.5 3.5 8.5C2.39543 8.5 1.5 7.60457 1.5 6.5ZM12.5 5.5C11.9477 5.5 11.5 5.94772 11.5 6.5C11.5 7.05229 11.9477 7.5 12.5 7.5C13.0523 7.5 13.5 7.05229 13.5 6.5C13.5 5.94772 13.0523 5.5 12.5 5.5ZM10.5 6.5C10.5 5.39543 11.3954 4.5 12.5 4.5C13.6046 4.5 14.5 5.39543 14.5 6.5C14.5 7.60457 13.6046 8.5 12.5 8.5C11.3954 8.5 10.5 7.60457 10.5 6.5ZM8 9C6.76083 9 5.67165 9.64361 5.04901 10.6171C4.70449 11.1558 4.50349 11.7948 4.50005 12.482L4.5 12.5C4.5 12.5457 4.50087 12.5912 4.5026 12.6364C5.5464 13.1877 6.73608 13.5 8 13.5C9.26392 13.5 10.4536 13.1877 11.4974 12.6364C11.4991 12.5912 11.5 12.5457 11.5 12.5L11.5 12.4819C11.4965 11.7949 11.2956 11.1561 10.9512 10.6175C10.3286 9.64377 9.23933 9 8 9ZM12.4725 12.9999C12.4546 13.158 12.3626 13.2982 12.2245 13.3774C10.9796 14.0917 9.53672 14.5 8 14.5C6.46328 14.5 5.02039 14.0917 3.7755 13.3774C3.63745 13.2982 3.54538 13.158 3.52751 12.9999C3.51851 13 3.5095 13 3.50049 13C2.74425 13 2.01715 12.8706 1.34077 12.6324C1.15436 12.5668 1.02411 12.3975 1.00844 12.2005C1.00317 12.1343 1.00049 12.0674 1.00049 12C1.00049 10.6193 2.11978 9.5 3.50049 9.5C3.84698 9.5 4.17762 9.57073 4.47819 9.69856C5.30207 8.6642 6.57334 8 8 8C9.42679 8 10.6982 8.66432 11.522 9.69883C11.8228 9.57083 12.1536 9.5 12.5004 9.5C13.8811 9.5 15.0004 10.6193 15.0004 12C15.0004 12.0674 14.9977 12.1343 14.9924 12.2005C14.9768 12.3975 14.8465 12.5668 14.6601 12.6324C13.9837 12.8706 13.2566 13 12.5004 13C12.4911 13 12.4818 13 12.4725 12.9999ZM12.0635 10.5645C12.2751 11.0079 12.4162 11.4913 12.4725 11.9999C12.4818 12 12.4911 12 12.5004 12C13.016 12 13.5144 11.9292 13.9868 11.7969C13.8876 11.0646 13.2599 10.5 12.5004 10.5C12.3482 10.5 12.2016 10.5225 12.0635 10.5645ZM3.9366 10.5642C3.79878 10.5225 3.65243 10.5 3.50049 10.5C2.74093 10.5 2.11323 11.0646 2.01412 11.7969C2.48644 11.9292 2.98484 12 3.50049 12C3.5095 12 3.51851 12 3.52751 11.9999C3.58382 11.4912 3.725 11.0077 3.9366 10.5642Z" fill="#09090B"/>
</svg>
