<svg width="32" height="32" viewBox="0 0 32 32" fill="none" xmlns="http://www.w3.org/2000/svg">
<path fill-rule="evenodd" clip-rule="evenodd" d="M16 6C9.84118 6 5 10.5573 5 16C5 18.6249 6.11308 21.0256 7.95996 22.8233C8.54093 23.3888 9.07733 24.3039 8.86607 25.3689C8.75317 25.9381 8.57138 26.4823 8.32984 26.9924C9.70017 26.9289 10.9655 26.4722 12.0187 25.7323C12.2618 25.5615 12.5683 25.5076 12.855 25.5853C13.85 25.8548 14.9054 26 16 26C22.1588 26 27 21.4427 27 16C27 10.5573 22.1588 6 16 6ZM7.11571 28.9571C6.87631 28.9337 6.63902 28.9009 6.40486 28.859C6.0528 28.796 5.7612 28.5497 5.64011 28.2132C5.51902 27.8767 5.58688 27.5011 5.81809 27.2282C6.35583 26.5935 6.73673 25.8246 6.90429 24.9798C6.93476 24.8262 6.87428 24.5576 6.56494 24.2565C4.36613 22.1162 3 19.2114 3 16C3 9.29246 8.90398 4 16 4C23.096 4 29 9.29246 29 16C29 22.7075 23.096 28 16 28C14.8891 28 13.8092 27.8712 12.7775 27.6284C11.3926 28.4974 9.75373 29 8 29C7.7019 29 7.40678 28.9855 7.11571 28.9571ZM9.5 16C9.5 15.1716 10.1716 14.5 11 14.5C11.8284 14.5 12.5 15.1716 12.5 16C12.5 16.8284 11.8284 17.5 11 17.5C10.1716 17.5 9.5 16.8284 9.5 16ZM14.5 16C14.5 15.1716 15.1716 14.5 16 14.5C16.8284 14.5 17.5 15.1716 17.5 16C17.5 16.8284 16.8284 17.5 16 17.5C15.1716 17.5 14.5 16.8284 14.5 16ZM19.5 16C19.5 15.1716 20.1716 14.5 21 14.5C21.8284 14.5 22.5 15.1716 22.5 16C22.5 16.8284 21.8284 17.5 21 17.5C20.1716 17.5 19.5 16.8284 19.5 16Z" fill="#FAFAFA"/>
</svg>
