<svg width="40" height="40" viewBox="0 0 40 40" fill="none" xmlns="http://www.w3.org/2000/svg">
<path fill-rule="evenodd" clip-rule="evenodd" d="M17.5 8.75C13.3579 8.75 10 12.1079 10 16.25C10 16.7276 10.0445 17.1936 10.1292 17.6446C10.2448 18.2602 9.88689 18.8664 9.29192 19.0625C6.79771 19.8845 5 22.2339 5 25C5 28.4518 7.79822 31.25 11.25 31.25H30C32.7614 31.25 35 29.0114 35 26.25C35 24.1158 33.6624 22.291 31.7754 21.574C31.1418 21.3333 30.8155 20.6314 31.0399 19.9918C31.1756 19.6048 31.25 19.1874 31.25 18.75C31.25 16.6789 29.5711 15 27.5 15C27.0938 15 26.7049 15.0642 26.3417 15.1819C26.0154 15.2878 25.6598 15.2548 25.3585 15.0908C25.0571 14.9268 24.8365 14.6461 24.7482 14.3145C23.8949 11.1096 20.9714 8.75 17.5 8.75ZM7.5 16.25C7.5 10.7272 11.9772 6.25 17.5 6.25C21.7133 6.25 25.3155 8.8547 26.7889 12.5401C27.0225 12.5136 27.2598 12.5 27.5 12.5C30.9518 12.5 33.75 15.2982 33.75 18.75C33.75 19.0765 33.7249 19.3977 33.6763 19.7116C35.9574 20.9969 37.5 23.4421 37.5 26.25C37.5 30.3921 34.1421 33.75 30 33.75H11.25C6.41751 33.75 2.5 29.8325 2.5 25C2.5 21.4947 4.56045 18.4734 7.53373 17.0765C7.51138 16.8037 7.5 16.5281 7.5 16.25ZM19.1161 15.3661C19.6043 14.878 20.3957 14.878 20.8839 15.3661L25.8839 20.3661C26.372 20.8543 26.372 21.6457 25.8839 22.1339C25.3957 22.622 24.6043 22.622 24.1161 22.1339L21.25 19.2678L21.25 27.5C21.25 28.1904 20.6904 28.75 20 28.75C19.3096 28.75 18.75 28.1904 18.75 27.5L18.75 19.2678L15.8839 22.1339C15.3957 22.622 14.6043 22.622 14.1161 22.1339C13.628 21.6457 13.628 20.8543 14.1161 20.3661L19.1161 15.3661Z" fill="#71717A"/>
</svg>
