<svg width="16" height="16" viewBox="0 0 16 16" fill="none" xmlns="http://www.w3.org/2000/svg">
<path fill-rule="evenodd" clip-rule="evenodd" d="M3.75736 3.05026C3.95262 3.24552 3.95262 3.5621 3.75736 3.75736C1.41421 6.10051 1.41421 9.8995 3.75736 12.2426C3.95262 12.4379 3.95262 12.7545 3.75736 12.9497C3.5621 13.145 3.24551 13.145 3.05025 12.9497C0.316583 10.2161 0.316582 5.78393 3.05025 3.05026C3.24551 2.85499 3.5621 2.85499 3.75736 3.05026ZM12.2426 3.05026C12.4379 2.85499 12.7545 2.85499 12.9497 3.05026C15.6834 5.78393 15.6834 10.2161 12.9497 12.9497C12.7545 13.145 12.4379 13.145 12.2426 12.9497C12.0474 12.7545 12.0474 12.4379 12.2426 12.2426C14.5858 9.8995 14.5858 6.10051 12.2426 3.75736C12.0474 3.5621 12.0474 3.24552 12.2426 3.05026ZM5.17157 4.46447C5.36684 4.65973 5.36684 4.97631 5.17157 5.17158C3.60948 6.73367 3.60948 9.26633 5.17157 10.8284C5.36684 11.0237 5.36684 11.3403 5.17157 11.5355C4.97631 11.7308 4.65973 11.7308 4.46447 11.5355C2.51184 9.58291 2.51184 6.41709 4.46447 4.46447C4.65973 4.26921 4.97631 4.26921 5.17157 4.46447ZM10.8284 4.46447C11.0237 4.26921 11.3403 4.26921 11.5355 4.46447C13.4882 6.41709 13.4882 9.58291 11.5355 11.5355C11.3403 11.7308 11.0237 11.7308 10.8284 11.5355C10.6332 11.3403 10.6332 11.0237 10.8284 10.8284C12.3905 9.26633 12.3905 6.73367 10.8284 5.17158C10.6332 4.97631 10.6332 4.65973 10.8284 4.46447ZM6.58579 5.87868C6.78105 6.07394 6.78105 6.39053 6.58579 6.58579C5.80474 7.36684 5.80474 8.63317 6.58579 9.41422C6.78105 9.60948 6.78105 9.92606 6.58579 10.1213C6.39052 10.3166 6.07394 10.3166 5.87868 10.1213C4.70711 8.94975 4.70711 7.05026 5.87868 5.87868C6.07394 5.68342 6.39052 5.68342 6.58579 5.87868ZM9.41421 5.87868C9.60948 5.68342 9.92606 5.68342 10.1213 5.87868C11.2929 7.05026 11.2929 8.94975 10.1213 10.1213C9.92606 10.3166 9.60948 10.3166 9.41421 10.1213C9.21895 9.92606 9.21895 9.60948 9.41421 9.41422C10.1953 8.63317 10.1953 7.36684 9.41421 6.58579C9.21895 6.39053 9.21895 6.07394 9.41421 5.87868ZM7.25 8C7.25 7.58579 7.58579 7.25 8 7.25C8.41421 7.25 8.75 7.58579 8.75 8C8.75 8.41422 8.41421 8.75 8 8.75C7.58579 8.75 7.25 8.41422 7.25 8Z" fill="#71717A"/>
</svg>
