<svg width="16" height="16" viewBox="0 0 16 16" fill="none" xmlns="http://www.w3.org/2000/svg">
<path fill-rule="evenodd" clip-rule="evenodd" d="M2 4C2 2.89543 2.89543 2 4 2H12C13.1046 2 14 2.89543 14 4V12C14 13.1046 13.1046 14 12 14H4C2.89543 14 2 13.1046 2 12V4ZM4 3C3.44772 3 3 3.44772 3 4V12C3 12.5523 3.44772 13 4 13H12C12.5523 13 13 12.5523 13 12V4C13 3.44772 12.5523 3 12 3H4ZM9.14645 6.14645C9.34171 5.95118 9.65829 5.95118 9.85355 6.14645L11.3536 7.64645C11.4473 7.74021 11.5 7.86739 11.5 8C11.5 8.13261 11.4473 8.25979 11.3536 8.35355L9.85355 9.85355C9.65829 10.0488 9.34171 10.0488 9.14645 9.85355C8.95118 9.65829 8.95118 9.34171 9.14645 9.14645L10.2929 8L9.14645 6.85355C8.95118 6.65829 8.95118 6.34171 9.14645 6.14645ZM6.85355 6.14645C7.04882 6.34171 7.04882 6.65829 6.85355 6.85355L5.70711 8L6.85355 9.14645C7.04882 9.34171 7.04882 9.65829 6.85355 9.85355C6.65829 10.0488 6.34171 10.0488 6.14645 9.85355L4.64645 8.35355C4.55268 8.25979 4.5 8.13261 4.5 8C4.5 7.86739 4.55268 7.74021 4.64645 7.64645L6.14645 6.14645C6.34171 5.95118 6.65829 5.95118 6.85355 6.14645Z" fill="#71717A"/>
</svg>
