<svg width="16" height="16" viewBox="0 0 16 16" fill="none" xmlns="http://www.w3.org/2000/svg">
<path fill-rule="evenodd" clip-rule="evenodd" d="M5.52133 2.59313C6.33955 2.53141 7.16616 2.5 8 2.5C8.83385 2.5 9.66045 2.53141 10.4787 2.59313C12.0479 2.7115 13.2885 3.95208 13.4069 5.52133C13.4392 5.95002 13.4632 6.38101 13.4788 6.81413L14.6464 5.64645C14.8417 5.45118 15.1583 5.45118 15.3536 5.64645C15.5488 5.84171 15.5488 6.15829 15.3536 6.35355L13.3536 8.35355C13.1583 8.54882 12.8417 8.54882 12.6464 8.35355L10.6464 6.35355C10.4512 6.15829 10.4512 5.84171 10.6464 5.64645C10.8417 5.45118 11.1583 5.45118 11.3536 5.64645L12.4764 6.7693C12.4613 6.37647 12.439 5.98551 12.4097 5.59654C12.3285 4.52025 11.4797 3.67149 10.4035 3.5903C9.61023 3.53047 8.80872 3.5 8 3.5C7.19128 3.5 6.38977 3.53047 5.59654 3.5903C4.52025 3.67149 3.67148 4.52025 3.5903 5.59654C3.5794 5.74101 3.56948 5.88576 3.56053 6.03078C3.54354 6.3064 3.30632 6.51605 3.0307 6.49905C2.75509 6.48205 2.54543 6.24484 2.56243 5.96922C2.57166 5.81965 2.58189 5.67035 2.59313 5.52133C2.7115 3.95208 3.95208 2.7115 5.52133 2.59313ZM2.64645 7.64645C2.84171 7.45118 3.15829 7.45118 3.35355 7.64645L5.35355 9.64645C5.54882 9.84171 5.54882 10.1583 5.35355 10.3536C5.15829 10.5488 4.84171 10.5488 4.64645 10.3536L3.52359 9.2307C3.53868 9.62353 3.56096 10.0145 3.5903 10.4035C3.67148 11.4797 4.52025 12.3285 5.59654 12.4097C6.38977 12.4695 7.19128 12.5 8 12.5C8.80872 12.5 9.61023 12.4695 10.4035 12.4097C11.4797 12.3285 12.3285 11.4797 12.4097 10.4035C12.4206 10.259 12.4305 10.1142 12.4395 9.96922C12.4565 9.69361 12.6937 9.48395 12.9693 9.50095C13.2449 9.51795 13.4546 9.75516 13.4376 10.0308C13.4283 10.1803 13.4181 10.3296 13.4069 10.4787C13.2885 12.0479 12.0479 13.2885 10.4787 13.4069C9.66044 13.4686 8.83385 13.5 8 13.5C7.16616 13.5 6.33955 13.4686 5.52133 13.4069C3.95208 13.2885 2.7115 12.0479 2.59313 10.4787C2.5608 10.05 2.53678 9.61899 2.52124 9.18587L1.35355 10.3536C1.15829 10.5488 0.841709 10.5488 0.646447 10.3536C0.451184 10.1583 0.451184 9.84171 0.646447 9.64645L2.64645 7.64645Z" fill="#3F3F46"/>
</svg>
