<svg width="20" height="20" viewBox="0 0 20 20" fill="none" xmlns="http://www.w3.org/2000/svg">
<path fill-rule="evenodd" clip-rule="evenodd" d="M3.75 6.25C3.75 4.86929 4.86929 3.75 6.25 3.75H13.75C15.1307 3.75 16.25 4.86929 16.25 6.25V13.75C16.25 15.1307 15.1307 16.25 13.75 16.25H6.25C4.86929 16.25 3.75 15.1307 3.75 13.75V6.25ZM6.25 5C5.55964 5 5 5.55964 5 6.25V13.75C5 14.4404 5.55964 15 6.25 15H13.75C14.4404 15 15 14.4404 15 13.75V6.25C15 5.55964 14.4404 5 13.75 5H6.25Z" fill="#FAFAFA"/>
</svg>
