<svg width="32" height="32" viewBox="0 0 32 32" fill="none" xmlns="http://www.w3.org/2000/svg">
<path fill-rule="evenodd" clip-rule="evenodd" d="M11.805 5.089C12.0059 3.88353 13.0489 3 14.271 3H17.7296C18.9517 3 19.9947 3.88353 20.1956 5.089L20.4803 6.79707C20.5055 6.94839 20.6176 7.12416 20.837 7.24557C20.9469 7.30642 21.0555 7.36926 21.1628 7.43406C21.3774 7.56363 21.5858 7.57299 21.7297 7.5191L23.3521 6.91126C24.4966 6.48252 25.7832 6.944 26.3943 8.00236L28.1236 10.9976C28.7346 12.056 28.491 13.401 27.5474 14.1777L26.2083 15.2801C26.0898 15.3777 25.994 15.5623 25.9986 15.8115C25.9997 15.8742 26.0003 15.937 26.0003 16C26.0003 16.0629 25.9997 16.1258 25.9986 16.1885C25.994 16.4377 26.0898 16.6223 26.2083 16.7198L27.5474 17.8223C28.491 18.599 28.7346 19.944 28.1236 21.0024L26.3943 23.9976C25.7832 25.056 24.4966 25.5175 23.3521 25.0887L21.7297 24.4809C21.5858 24.427 21.3774 24.4364 21.1628 24.5659C21.0555 24.6307 20.9469 24.6936 20.837 24.7544C20.6176 24.8758 20.5055 25.0516 20.4803 25.2029L20.1956 26.911C19.9947 28.1165 18.9517 29 17.7296 29H14.271C13.0489 29 12.0059 28.1165 11.805 26.911L11.5204 25.2029C11.4951 25.0516 11.383 24.8758 11.1637 24.7544C11.0538 24.6936 10.9451 24.6307 10.8378 24.5659C10.6232 24.4364 10.4148 24.427 10.271 24.4809L8.6485 25.0887C7.50407 25.5175 6.21742 25.056 5.60638 23.9976L3.87707 21.0024C3.26602 19.944 3.50969 18.599 4.4532 17.8223L5.08878 18.5943L4.4532 17.8223L5.79234 16.7199C5.91087 16.6223 6.00669 16.4377 6.00207 16.1885C6.00091 16.1258 6.00033 16.063 6.00033 16C6.00033 15.9371 6.00091 15.8742 6.00207 15.8115C6.00668 15.5623 5.91087 15.3777 5.79234 15.2802L4.4532 14.1777C3.50969 13.401 3.26602 12.056 3.87707 10.9976L5.60638 8.00238C6.21743 6.94402 7.50407 6.48254 8.6485 6.91128L10.271 7.51911C10.4148 7.57301 10.6232 7.56364 10.8378 7.43407C10.9451 7.36927 11.0538 7.30642 11.1637 7.24558C11.383 7.12416 11.4951 6.94839 11.5204 6.79707L11.805 5.089ZM14.271 5C14.0266 5 13.818 5.17671 13.7778 5.4178L13.4931 7.12586C13.3521 7.97199 12.7976 8.62708 12.1323 8.99538C12.0444 9.04404 11.9575 9.0943 11.8716 9.14614C11.2195 9.53996 10.3736 9.69332 9.56932 9.392L7.94685 8.78416C7.71797 8.69842 7.46064 8.79071 7.33843 9.00239L5.60912 11.9976C5.48691 12.2093 5.53564 12.4783 5.72434 12.6337L7.06348 13.7361C7.72496 14.2806 8.01582 15.0876 8.00173 15.8486C8.00079 15.8989 8.00032 15.9494 8.00032 16C8.00032 16.0506 8.00079 16.1011 8.00173 16.1514C8.01582 16.9124 7.72497 17.7194 7.06348 18.2639L5.72435 19.3664L5.28122 18.8281L5.72435 19.3664C5.53564 19.5217 5.48691 19.7907 5.60912 20.0024L7.33843 22.9976C7.46064 23.2093 7.71797 23.3016 7.94685 23.2159L9.56934 22.608C10.3737 22.3067 11.2195 22.4601 11.8716 22.8539C11.9575 22.9057 12.0444 22.956 12.1323 23.0046C12.7976 23.3729 13.3521 24.028 13.4931 24.8741L13.7778 26.5822C13.818 26.8233 14.0266 27 14.271 27H17.7296C17.9741 27 18.1826 26.8233 18.2228 26.5822L18.5075 24.8741C18.6485 24.028 19.203 23.3729 19.8684 23.0046C19.9563 22.956 20.0432 22.9057 20.129 22.8539C20.7812 22.46 21.627 22.3067 22.4313 22.608L24.0538 23.2158C24.2827 23.3016 24.54 23.2093 24.6622 22.9976L26.3915 20.0024C26.5137 19.7907 26.465 19.5217 26.2763 19.3663L24.9372 18.2639C24.2757 17.7194 23.9848 16.9124 23.9989 16.1514C23.9999 16.1011 24.0003 16.0506 24.0003 16C24.0003 15.9494 23.9999 15.8989 23.9989 15.8486C23.9848 15.0876 24.2757 14.2806 24.9372 13.7361L26.2763 12.6336C26.465 12.4783 26.5137 12.2093 26.3915 11.9976L24.6622 9.00237C24.54 8.79069 24.2827 8.6984 24.0538 8.78414L22.4313 9.39198C21.627 9.69331 20.7812 9.53994 20.129 9.14613C20.0432 9.0943 19.9563 9.04403 19.8684 8.99538C19.203 8.62708 18.6485 7.97199 18.5075 7.12586L18.2228 5.4178C18.1826 5.17671 17.9741 5 17.7296 5H14.271ZM16 12.9999C14.3432 12.9999 13 14.343 13 15.9999C13 17.6567 14.3432 18.9999 16 18.9999C17.6569 18.9999 19 17.6567 19 15.9999C19 14.343 17.6569 12.9999 16 12.9999ZM11 15.9999C11 13.2385 13.2386 10.9999 16 10.9999C18.7614 10.9999 21 13.2385 21 15.9999C21 18.7613 18.7614 20.9999 16 20.9999C13.2386 20.9999 11 18.7613 11 15.9999Z" fill="#71717A"/>
</svg>
