<svg width="24" height="24" viewBox="0 0 24 24" fill="none" xmlns="http://www.w3.org/2000/svg">
<path fill-rule="evenodd" clip-rule="evenodd" d="M12 5.77778C11.5833 5.77778 11.177 5.81861 10.7847 5.89623C10.3031 5.9915 9.83546 5.67833 9.74019 5.19675C9.64492 4.71516 9.95809 4.24753 10.4397 4.15225C10.945 4.05228 11.4669 4 12 4C12.5331 4 13.055 4.05228 13.5603 4.15225C14.0419 4.24753 14.3551 4.71516 14.2598 5.19675C14.1645 5.67833 13.6969 5.9915 13.2153 5.89623C12.823 5.81861 12.4167 5.77778 12 5.77778ZM8.78759 5.59214C9.0607 6.00008 8.9514 6.55218 8.54346 6.82528C7.86454 7.27981 7.27981 7.86454 6.82528 8.54346C6.55218 8.9514 6.00008 9.0607 5.59214 8.78759C5.1842 8.51449 5.0749 7.96239 5.34801 7.55445C5.93182 6.68242 6.68242 5.93181 7.55445 5.34801C7.96239 5.0749 8.51449 5.1842 8.78759 5.59214ZM15.2124 5.59214C15.4855 5.1842 16.0376 5.0749 16.4456 5.34801C17.3176 5.93182 18.0682 6.68242 18.652 7.55445C18.9251 7.96239 18.8158 8.51449 18.4079 8.78759C17.9999 9.0607 17.4478 8.9514 17.1747 8.54346C16.7202 7.86454 16.1355 7.27981 15.4565 6.82528C15.0486 6.55218 14.9393 6.00008 15.2124 5.59214ZM5.19675 9.74019C5.67833 9.83546 5.9915 10.3031 5.89623 10.7847C5.81861 11.177 5.77778 11.5833 5.77778 12C5.77778 12.4167 5.81861 12.823 5.89623 13.2153C5.9915 13.6969 5.67833 14.1645 5.19675 14.2598C4.71516 14.3551 4.24753 14.0419 4.15225 13.5603C4.05228 13.055 4 12.5331 4 12C4 11.4669 4.05228 10.945 4.15225 10.4397C4.24753 9.95809 4.71516 9.64492 5.19675 9.74019ZM18.8033 9.74019C19.2848 9.64492 19.7525 9.95809 19.8477 10.4397C19.9477 10.945 20 11.4669 20 12C20 12.5331 19.9477 13.055 19.8477 13.5603C19.7525 14.0419 19.2848 14.3551 18.8033 14.2598C18.3217 14.1645 18.0085 13.6969 18.1038 13.2153C18.1814 12.823 18.2222 12.4167 18.2222 12C18.2222 11.5833 18.1814 11.177 18.1038 10.7847C18.0085 10.3031 18.3217 9.83546 18.8033 9.74019ZM5.59214 15.2124C6.00008 14.9393 6.55218 15.0486 6.82528 15.4565C7.27981 16.1355 7.86454 16.7202 8.54346 17.1747C8.9514 17.4478 9.0607 17.9999 8.78759 18.4079C8.51449 18.8158 7.96239 18.9251 7.55445 18.652C6.68242 18.0682 5.93181 17.3176 5.34801 16.4455C5.0749 16.0376 5.1842 15.4855 5.59214 15.2124ZM18.4079 15.2124C18.8158 15.4855 18.9251 16.0376 18.652 16.4456C18.0682 17.3176 17.3176 18.0682 16.4455 18.652C16.0376 18.9251 15.4855 18.8158 15.2124 18.4079C14.9393 17.9999 15.0486 17.4478 15.4565 17.1747C16.1355 16.7202 16.7202 16.1355 17.1747 15.4565C17.4478 15.0486 17.9999 14.9393 18.4079 15.2124ZM9.74019 18.8033C9.83546 18.3217 10.3031 18.0085 10.7847 18.1038C11.177 18.1814 11.5833 18.2222 12 18.2222C12.4167 18.2222 12.823 18.1814 13.2153 18.1038C13.6969 18.0085 14.1645 18.3217 14.2598 18.8033C14.3551 19.2848 14.0419 19.7525 13.5603 19.8477C13.055 19.9477 12.5331 20 12 20C11.4669 20 10.945 19.9477 10.4397 19.8477C9.95809 19.7525 9.64492 19.2848 9.74019 18.8033Z" fill="#2563EB"/>
</svg>
