<svg width="16" height="16" viewBox="0 0 16 16" fill="none" xmlns="http://www.w3.org/2000/svg">
<path fill-rule="evenodd" clip-rule="evenodd" d="M9.63156 2.01774C9.89797 2.0904 10.055 2.36527 9.98238 2.63168L6.98238 13.6317C6.90972 13.8981 6.63485 14.0552 6.36844 13.9825C6.10203 13.9099 5.94496 13.635 6.01762 13.3686L9.01762 2.36857C9.09028 2.10215 9.36515 1.94509 9.63156 2.01774ZM11.1464 4.14657C11.3417 3.95131 11.6583 3.95131 11.8536 4.14657L15.3536 7.64657C15.5488 7.84183 15.5488 8.15842 15.3536 8.35368L11.8536 11.8537C11.6583 12.0489 11.3417 12.0489 11.1464 11.8537C10.9512 11.6584 10.9512 11.3418 11.1464 11.1466L14.2929 8.00013L11.1464 4.85368C10.9512 4.65842 10.9512 4.34183 11.1464 4.14657ZM4.85355 4.14657C5.04882 4.34183 5.04882 4.65842 4.85355 4.85368L1.70711 8.00013L4.85355 11.1466C5.04882 11.3418 5.04882 11.6584 4.85355 11.8537C4.65829 12.0489 4.34171 12.0489 4.14645 11.8537L0.646447 8.35368C0.451184 8.15842 0.451184 7.84183 0.646447 7.64657L4.14645 4.14657C4.34171 3.95131 4.65829 3.95131 4.85355 4.14657Z" fill="#71717A"/>
</svg>
