<svg width="16" height="16" viewBox="0 0 16 16" fill="none" xmlns="http://www.w3.org/2000/svg">
<path fill-rule="evenodd" clip-rule="evenodd" d="M1 2C1 1.72386 1.22386 1.5 1.5 1.5H14.5C14.7761 1.5 15 1.72386 15 2C15 2.27614 14.7761 2.5 14.5 2.5H14V9.5C14 10.6046 13.1046 11.5 12 11.5H11.1937L11.9743 13.8419C12.0617 14.1039 11.9201 14.387 11.6581 14.4743C11.3961 14.5617 11.113 14.4201 11.0257 14.1581L10.8063 13.5H5.19371L4.97434 14.1581C4.88702 14.4201 4.60386 14.5617 4.34189 14.4743C4.07991 14.387 3.93833 14.1039 4.02566 13.8419L4.80629 11.5H4C2.89543 11.5 2 10.6046 2 9.5V2.5H1.5C1.22386 2.5 1 2.27614 1 2ZM3 2.5V9.5C3 10.0523 3.44772 10.5 4 10.5H12C12.5523 10.5 13 10.0523 13 9.5V2.5H3ZM5.86038 11.5L5.52705 12.5H10.473L10.1396 11.5H5.86038ZM11.4328 4.81989C11.5711 5.05893 11.4894 5.36479 11.2504 5.50306C10.2943 6.05613 9.47131 6.81439 8.84196 7.71758C8.75735 7.83901 8.62329 7.91671 8.47588 7.92978C8.32846 7.94284 8.18283 7.88993 8.07818 7.78528L7 6.70711L5.35355 8.35355C5.15829 8.54882 4.84171 8.54882 4.64645 8.35355C4.45118 8.15829 4.45118 7.84171 4.64645 7.64645L6.64645 5.64645C6.84171 5.45118 7.15829 5.45118 7.35355 5.64645L8.37781 6.67071C9.03444 5.85575 9.83848 5.16453 10.7496 4.63746C10.9887 4.49918 11.2945 4.58086 11.4328 4.81989Z" fill="#71717A"/>
</svg>
