<svg width="16" height="16" viewBox="0 0 16 16" fill="none" xmlns="http://www.w3.org/2000/svg">
<path fill-rule="evenodd" clip-rule="evenodd" d="M8.5 2C8.5 1.72386 8.72386 1.5 9 1.5C12.0376 1.5 14.5 3.96243 14.5 7C14.5 7.27614 14.2761 7.5 14 7.5H9C8.72386 7.5 8.5 7.27614 8.5 7V2ZM9.5 2.52746V6.5H13.4725C13.242 4.41419 11.5858 2.75804 9.5 2.52746ZM6.5 4.52746C4.25002 4.77619 2.5 6.68372 2.5 9C2.5 11.4853 4.51472 13.5 7 13.5C9.31628 13.5 11.2238 11.75 11.4725 9.5H7C6.72386 9.5 6.5 9.27614 6.5 9V4.52746ZM1.5 9C1.5 5.96243 3.96243 3.5 7 3.5C7.27614 3.5 7.5 3.72386 7.5 4V8.5H12C12.2761 8.5 12.5 8.72386 12.5 9C12.5 12.0376 10.0376 14.5 7 14.5C3.96243 14.5 1.5 12.0376 1.5 9Z" fill="#09090B"/>
</svg>
