<svg width="94" height="18" viewBox="0 0 94 18" fill="none" xmlns="http://www.w3.org/2000/svg">
<path fill-rule="evenodd" clip-rule="evenodd" d="M24.6937 0.0074694C25.6967 -0.0564309 26.5279 0.289666 27.1872 1.04578C27.5385 1.48765 27.7445 1.99197 27.8051 2.55874C27.815 6.79606 27.815 11.0332 27.8051 15.2706C27.6849 16.2134 27.2264 16.9327 26.4296 17.4288C25.7213 17.8257 24.9759 17.9147 24.1936 17.6958C23.155 17.3407 22.237 16.346 22.237 15.3002L22.2092 12.2147C22.2002 11.2225 21.0263 10.7225 20.3222 11.4112L19.3851 12.328C18.6787 13.0191 17.5018 12.5139 17.5007 11.5183C17.4993 10.2546 17.5 8.93677 17.5028 7.72717C17.505 6.82556 17.8626 5.96276 18.4943 5.32848C19.0852 4.73515 19.6886 4.12874 20.292 3.52234C21.2358 2.57383 22.1796 1.62533 23.0755 0.726867C23.5417 0.32129 24.0812 0.0815006 24.6937 0.0074694ZM13.4717 0.943255C14.5885 0.882402 15.4692 1.30418 16.1136 2.20857C16.3602 2.59506 16.5551 2.90254 16.5551 3.47388C16.565 7.30911 16.565 11.1442 16.5551 14.9794C16.3872 16.1425 15.7568 16.9345 14.6638 17.3556C13.6805 17.652 12.7827 17.4902 11.9704 16.87C11.3985 16.3863 11.0623 15.7708 10.9623 15.0236C10.9546 14.4357 10.9485 13.8478 10.9439 13.2599C10.936 12.2598 9.72418 11.759 9.01686 12.4661L4.65558 16.8259C3.80685 17.5036 2.86489 17.6703 1.82972 17.3261C0.822459 16.9125 0.221477 16.1695 0.026758 15.0971C-0.0756059 14.2961 0.115728 13.5752 0.600761 12.9343C4.36572 9.15588 8.13599 5.38201 11.9116 1.61269C12.364 1.23208 12.884 1.00895 13.4717 0.943255ZM33.0916 16.7244C33.6252 17.0526 34.25 17.2166 34.9659 17.2166C35.6818 17.2166 36.3066 17.0526 36.8402 16.7244C37.3738 16.3963 37.7881 15.9373 38.0831 15.3473C38.3781 14.7573 38.5256 14.0679 38.5256 13.2791C38.5256 12.487 38.3781 11.7943 38.0831 11.201C37.7881 10.6077 37.3738 10.147 36.8402 9.81889C36.3066 9.49077 35.6818 9.3267 34.9659 9.3267C34.25 9.3267 33.6252 9.49077 33.0916 9.81889C32.558 10.147 32.1437 10.6077 31.8487 11.201C31.5537 11.7943 31.4062 12.487 31.4062 13.2791C31.4062 14.0679 31.5537 14.7573 31.8487 15.3473C32.1437 15.9373 32.558 16.3963 33.0916 16.7244ZM36.1243 15.6009C35.8194 15.8461 35.4349 15.9688 34.9709 15.9688C34.5036 15.9688 34.1158 15.8461 33.8075 15.6009C33.5026 15.3556 33.2756 15.0291 33.1264 14.6214C32.9806 14.2138 32.9077 13.7647 32.9077 13.2741C32.9077 12.7869 32.9806 12.3395 33.1264 11.9318C33.2756 11.5208 33.5026 11.1911 33.8075 10.9425C34.1158 10.6939 34.5036 10.5696 34.9709 10.5696C35.4349 10.5696 35.8194 10.6939 36.1243 10.9425C36.4292 11.1911 36.6546 11.5208 36.8004 11.9318C36.9496 12.3395 37.0241 12.7869 37.0241 13.2741C37.0241 13.7647 36.9496 14.2138 36.8004 14.6214C36.6546 15.0291 36.4292 15.3556 36.1243 15.6009ZM40.1848 9.42614V17.0625H41.6713V12.3544C41.6713 12.0097 41.7426 11.7064 41.8851 11.4446C42.031 11.1828 42.2215 10.9789 42.4569 10.8331C42.6955 10.6839 42.9557 10.6094 43.2374 10.6094C43.6517 10.6094 43.9881 10.7353 44.2466 10.9872C44.5051 11.2391 44.6344 11.5722 44.6344 11.9865V17.0625H46.1159V12.1953C46.1159 11.7313 46.2502 11.3518 46.5186 11.0568C46.7871 10.7585 47.1633 10.6094 47.6472 10.6094C48.0383 10.6094 48.3747 10.7254 48.6564 10.9574C48.9382 11.1894 49.079 11.5639 49.079 12.081V17.0625H50.5655V11.9418C50.5655 11.0668 50.3451 10.4122 49.9043 9.97798C49.4668 9.5438 48.9017 9.3267 48.209 9.3267C47.6588 9.3267 47.1848 9.44934 46.7871 9.6946C46.3894 9.93655 46.0994 10.2614 45.9171 10.669H45.8375C45.6718 10.2514 45.415 9.9233 45.0669 9.68466C44.7222 9.44602 44.2947 9.3267 43.7843 9.3267C43.2805 9.3267 42.848 9.44602 42.4867 9.68466C42.1254 9.91998 41.8652 10.2481 41.7061 10.669H41.6117V9.42614H40.1848ZM53.9052 16.7344C54.4487 17.0559 55.0967 17.2166 55.8491 17.2166C56.4059 17.2166 56.9014 17.1321 57.3356 16.9631C57.7731 16.7907 58.136 16.5504 58.4244 16.2422C58.716 15.9306 58.9182 15.5677 59.0309 15.1534L57.6239 14.8999C57.5344 15.1385 57.4052 15.339 57.2361 15.5014C57.0671 15.6638 56.8666 15.7865 56.6346 15.8693C56.4026 15.9489 56.1457 15.9886 55.864 15.9886C55.4298 15.9886 55.0503 15.8958 54.7255 15.7102C54.4007 15.5213 54.1471 15.2479 53.9648 14.8899C53.7982 14.5566 53.7091 14.1572 53.6977 13.6918H59.1254V13.1648C59.1254 12.4721 59.0326 11.8838 58.8469 11.3999C58.6613 10.9126 58.4078 10.5166 58.0863 10.2116C57.7648 9.90672 57.4019 9.683 56.9975 9.54048C56.5932 9.39796 56.1755 9.3267 55.7447 9.3267C55.0354 9.3267 54.4156 9.49408 53.8853 9.82883C53.3583 10.1636 52.9473 10.6293 52.6523 11.2259C52.3607 11.8224 52.2148 12.5118 52.2148 13.294C52.2148 14.0862 52.3607 14.7772 52.6523 15.3672C52.9473 15.9538 53.3649 16.4096 53.9052 16.7344ZM53.7001 12.5781C53.718 12.2499 53.7996 11.9433 53.945 11.6584C54.114 11.3303 54.3526 11.0651 54.6609 10.8629C54.9724 10.6574 55.337 10.5547 55.7546 10.5547C56.1391 10.5547 56.4738 10.6425 56.7589 10.8182C57.0472 10.9938 57.271 11.2341 57.43 11.5391C57.5891 11.8407 57.6687 12.187 57.6687 12.5781H53.7001ZM62.2612 17.0625V12.5284C62.2612 12.1241 62.3374 11.7794 62.4899 11.4943C62.6457 11.206 62.8561 10.9872 63.1213 10.8381C63.3897 10.6889 63.6963 10.6143 64.041 10.6143C64.5448 10.6143 64.9409 10.7718 65.2292 11.0866C65.5176 11.3982 65.6618 11.8307 65.6618 12.3842V17.0625H67.1483V12.2053C67.1483 11.5755 67.0405 11.0469 66.8251 10.6193C66.6097 10.1918 66.3064 9.87027 65.9153 9.65483C65.5242 9.43608 65.0685 9.3267 64.5481 9.3267C63.9747 9.3267 63.4991 9.44934 63.1213 9.6946C62.7467 9.93987 62.4716 10.2647 62.296 10.669H62.2015V9.42614H60.7747V17.0625H62.2612ZM72.7065 10.6193V9.42614H71.1404V7.59659H69.6539V9.42614H68.5353V10.6193H69.6539V15.1286C69.6539 15.5893 69.7583 15.9721 69.9672 16.277C70.176 16.5819 70.4494 16.8073 70.7875 16.9531C71.1255 17.099 71.4901 17.1686 71.8812 17.1619C72.1199 17.1586 72.3187 17.1387 72.4778 17.1023C72.6369 17.0691 72.7595 17.036 72.8457 17.0028L72.5772 15.7749C72.5275 15.7848 72.4579 15.7981 72.3684 15.8146C72.2789 15.8312 72.1745 15.8395 72.0552 15.8395C71.8928 15.8395 71.742 15.8146 71.6028 15.7649C71.4669 15.7119 71.3559 15.6141 71.2697 15.4716C71.1835 15.3258 71.1404 15.1087 71.1404 14.8203V10.6193H72.7065ZM79.1882 9.42614V13.8956C79.1915 14.3298 79.1004 14.6877 78.9148 14.9695C78.7325 15.2512 78.5021 15.4616 78.2237 15.6009C77.9486 15.7401 77.6719 15.8097 77.3935 15.8097C76.9328 15.8097 76.5582 15.6555 76.2699 15.3473C75.9815 15.0391 75.8374 14.6248 75.8374 14.1044V9.42614H74.3509V14.2834C74.3509 14.9131 74.4569 15.4418 74.669 15.8693C74.8845 16.2969 75.1795 16.62 75.554 16.8388C75.9318 17.0542 76.366 17.1619 76.8565 17.1619C77.4299 17.1619 77.9089 17.0277 78.2933 16.7592C78.6811 16.4875 78.9628 16.1477 79.1385 15.7401H79.218V17.0625H80.6797V9.42614H79.1882ZM82.677 9.42614V17.0625H84.1635V12.3544C84.1635 12.0097 84.2348 11.7064 84.3773 11.4446C84.5231 11.1828 84.7137 10.9789 84.949 10.8331C85.1877 10.6839 85.4479 10.6094 85.7296 10.6094C86.1439 10.6094 86.4803 10.7353 86.7388 10.9872C86.9973 11.2391 87.1266 11.5722 87.1266 11.9865V17.0625H88.6081V12.1953C88.6081 11.7313 88.7424 11.3518 89.0108 11.0568C89.2793 10.7585 89.6555 10.6094 90.1394 10.6094C90.5305 10.6094 90.8669 10.7254 91.1486 10.9574C91.4303 11.1894 91.5712 11.5639 91.5712 12.081V17.0625H93.0577V11.9418C93.0577 11.0668 92.8373 10.4122 92.3965 9.97798C91.959 9.5438 91.3939 9.3267 90.7012 9.3267C90.151 9.3267 89.677 9.44934 89.2793 9.6946C88.8816 9.93655 88.5916 10.2614 88.4093 10.669H88.3297C88.164 10.2514 87.9071 9.9233 87.5591 9.68466C87.2144 9.44602 86.7869 9.3267 86.2765 9.3267C85.7727 9.3267 85.3401 9.44602 84.9789 9.68466C84.6176 9.91998 84.3574 10.2481 84.1983 10.669H84.1039V9.42614H82.677Z" fill="#09090B"/>
</svg>
