<svg width="18" height="18" viewBox="0 0 18 18" fill="none" xmlns="http://www.w3.org/2000/svg">
<path fill-rule="evenodd" clip-rule="evenodd" d="M9 2.12503C5.20304 2.12503 2.125 5.20307 2.125 9.00003C2.125 12.797 5.20304 15.875 9 15.875C12.797 15.875 15.875 12.797 15.875 9.00003C15.875 5.20307 12.797 2.12503 9 2.12503ZM0.875 9.00003C0.875 4.51272 4.51269 0.875031 9 0.875031C13.4873 0.875031 17.125 4.51272 17.125 9.00003C17.125 13.4873 13.4873 17.125 9 17.125C4.51269 17.125 0.875 13.4873 0.875 9.00003ZM9 3.37503C9.34518 3.37503 9.625 3.65485 9.625 4.00003V4.67978C10.1473 4.77236 10.6454 4.98238 11.0576 5.30985L11.4034 5.58451C11.6736 5.79921 11.7187 6.19237 11.504 6.46265C11.2893 6.73292 10.8961 6.77797 10.6258 6.56326L10.2801 6.28861C10.0908 6.13824 9.86599 6.02888 9.625 5.96053V8.42471C10.1685 8.51199 10.6984 8.71591 11.1428 9.04921C11.7637 9.5149 12.125 10.1696 12.125 10.875C12.125 11.5805 11.7637 12.2352 11.1428 12.7008C10.6984 13.0342 10.1684 13.2381 9.625 13.3254V14C9.625 14.3452 9.34518 14.625 9 14.625C8.65482 14.625 8.375 14.3452 8.375 14V13.3253C7.83162 13.238 7.30172 13.0341 6.85738 12.7008L6.12499 12.1515C5.84885 11.9444 5.79289 11.5527 6.00001 11.2765C6.20712 11.0004 6.59887 10.9444 6.87501 11.1515L7.6074 11.7009C7.822 11.8618 8.0857 11.981 8.375 12.0513V9.57033C7.86055 9.47923 7.36086 9.27288 6.94215 8.94025C6.34852 8.46867 6.0146 7.81563 6.0146 7.12505C6.0146 6.43447 6.34852 5.78143 6.94215 5.30985C7.35444 4.98233 7.85259 4.7723 8.375 4.67974V4.00003C8.375 3.65485 8.65482 3.37503 9 3.37503ZM8.375 5.96046C8.13392 6.02881 7.90901 6.1382 7.71967 6.28861C7.39156 6.54926 7.2646 6.85593 7.2646 7.12505C7.2646 7.39418 7.39156 7.70085 7.71967 7.9615C7.90503 8.10874 8.12931 8.21983 8.375 8.28959V5.96046ZM9.625 9.69866V12.0514C9.91437 11.981 10.1781 11.8618 10.3928 11.7009C10.7482 11.4343 10.875 11.1293 10.875 10.875C10.875 10.6208 10.7482 10.3157 10.3928 10.0492C10.1781 9.88821 9.91437 9.76903 9.625 9.69866Z" fill="black"/>
</svg>
