<svg width="20" height="20" viewBox="0 0 20 20" fill="none" xmlns="http://www.w3.org/2000/svg">
<path fill-rule="evenodd" clip-rule="evenodd" d="M13.125 2.5C10.7088 2.5 8.75 4.45875 8.75 6.875C8.75 7.13147 8.772 7.3823 8.81408 7.62584C8.92022 8.24014 8.79771 8.96117 8.28194 9.47694L2.86612 14.8928C2.6317 15.1272 2.5 15.4451 2.5 15.7766V17.5H4.375V16.25C4.375 15.9048 4.65482 15.625 5 15.625H6.25V14.375C6.25 14.0298 6.52982 13.75 6.875 13.75H8.49112L10.5231 11.7181C11.0388 11.2023 11.7599 11.0798 12.3742 11.1859C12.6177 11.228 12.8685 11.25 13.125 11.25C15.5412 11.25 17.5 9.29125 17.5 6.875C17.5 4.45875 15.5412 2.5 13.125 2.5ZM7.5 6.875C7.5 3.7684 10.0184 1.25 13.125 1.25C16.2316 1.25 18.75 3.7684 18.75 6.875C18.75 9.9816 16.2316 12.5 13.125 12.5C12.7969 12.5 12.4749 12.4718 12.1613 12.4177C11.8373 12.3617 11.5645 12.4443 11.4069 12.6019L9.19194 14.8169C9.07473 14.9342 8.91576 15 8.75 15H7.5V16.25C7.5 16.5952 7.22018 16.875 6.875 16.875H5.625V18.125C5.625 18.4702 5.34518 18.75 5 18.75H1.875C1.52982 18.75 1.25 18.4702 1.25 18.125V15.7766C1.25 15.1136 1.51339 14.4777 1.98223 14.0089L7.39806 8.59306C7.55565 8.43546 7.63832 8.16273 7.58233 7.83866C7.52816 7.52513 7.5 7.2031 7.5 6.875ZM12.5 4.375C12.5 4.02982 12.7798 3.75 13.125 3.75C14.8509 3.75 16.25 5.14911 16.25 6.875C16.25 7.22018 15.9702 7.5 15.625 7.5C15.2798 7.5 15 7.22018 15 6.875C15 5.83947 14.1605 5 13.125 5C12.7798 5 12.5 4.72018 12.5 4.375Z" fill="#27272A"/>
</svg>
