<svg width="16" height="16" viewBox="0 0 16 16" fill="none" xmlns="http://www.w3.org/2000/svg">
<path fill-rule="evenodd" clip-rule="evenodd" d="M9.64645 1.64645C9.84171 1.45118 10.1583 1.45118 10.3536 1.64645L14.3536 5.64645C14.5488 5.84171 14.5488 6.15829 14.3536 6.35355L10.3536 10.3536C10.1583 10.5488 9.84171 10.5488 9.64645 10.3536C9.45118 10.1583 9.45118 9.84171 9.64645 9.64645L12.7929 6.5H6C4.067 6.5 2.5 8.067 2.5 10C2.5 11.933 4.067 13.5 6 13.5H8C8.27614 13.5 8.5 13.7239 8.5 14C8.5 14.2761 8.27614 14.5 8 14.5H6C3.51472 14.5 1.5 12.4853 1.5 10C1.5 7.51472 3.51472 5.5 6 5.5H12.7929L9.64645 2.35355C9.45118 2.15829 9.45118 1.84171 9.64645 1.64645Z" fill="#71717A"/>
</svg>
