<svg width="16" height="16" viewBox="0 0 16 16" fill="none" xmlns="http://www.w3.org/2000/svg">
<path fill-rule="evenodd" clip-rule="evenodd" d="M9.74745 1.0633C9.94828 1.17526 10.0469 1.40975 9.98636 1.63158L8.6586 6.50002H13.504C13.7031 6.50002 13.8832 6.61814 13.9626 6.80074C14.0419 6.98335 14.0054 7.19562 13.8695 7.34118L6.86951 14.8412C6.71262 15.0093 6.46133 15.0487 6.2605 14.9367C6.05968 14.8248 5.9611 14.5903 6.0216 14.3685L7.34935 9.50002H2.50398C2.30488 9.50002 2.12475 9.38189 2.0454 9.19929C1.96605 9.01669 2.0026 8.80441 2.13845 8.65886L9.13845 1.15886C9.29533 0.990769 9.54663 0.951339 9.74745 1.0633ZM3.65459 8.50002H8.00398C8.15981 8.50002 8.30674 8.57268 8.40133 8.69652C8.49592 8.82036 8.52736 8.98123 8.48636 9.13158L7.51856 12.6802L12.3534 7.50002H8.00398C7.84814 7.50002 7.70122 7.42736 7.60662 7.30351C7.51203 7.17967 7.48059 7.0188 7.5216 6.86846L8.48939 3.31987L3.65459 8.50002Z" fill="#71717A"/>
</svg>
