<svg width="16" height="16" viewBox="0 0 16 16" fill="none" xmlns="http://www.w3.org/2000/svg">
<path fill-rule="evenodd" clip-rule="evenodd" d="M8.0001 1.5C8.27624 1.5 8.5001 1.72386 8.5001 2V2.50377C9.87898 2.52457 11.2373 2.63127 12.5698 2.81881C13.2539 2.91509 13.9313 3.03269 14.6011 3.1709C14.8716 3.2267 15.0456 3.49117 14.9898 3.76162C14.934 4.03206 14.6695 4.20607 14.3991 4.15027C13.9899 4.06585 13.5779 3.98937 13.1631 3.92099L14.7327 10.3454C14.8633 10.88 14.6284 11.5179 14.0234 11.7355C13.547 11.9068 13.0339 12 12.5001 12C11.9663 12 11.4532 11.9068 10.9768 11.7355C10.3718 11.5179 10.1369 10.88 10.2675 10.3454L11.8821 3.73678C10.7717 3.60035 9.64339 3.52167 8.5001 3.50389V13.0145C9.36179 13.0645 10.1897 13.243 10.9646 13.5314C11.2234 13.6277 11.3551 13.9156 11.2588 14.1744C11.1625 14.4332 10.8746 14.5649 10.6158 14.4686C9.80206 14.1657 8.92101 14 8.0001 14C7.07919 14 6.19814 14.1657 5.38438 14.4686C5.12558 14.5649 4.8377 14.4332 4.74138 14.1744C4.64507 13.9156 4.77679 13.6277 5.03559 13.5314C5.81047 13.243 6.63841 13.0645 7.5001 13.0145V3.50389C6.35681 3.52167 5.22845 3.60035 4.11812 3.73678L5.73272 10.3454C5.86333 10.88 5.62843 11.5179 5.02343 11.7355C4.54703 11.9068 4.03389 12 3.5001 12C2.96631 12 2.45317 11.9068 1.97677 11.7355C1.37177 11.5179 1.13687 10.88 1.26748 10.3454L2.83708 3.92099C2.4223 3.98937 2.01026 4.06585 1.60114 4.15027C1.33069 4.20607 1.06622 4.03206 1.01041 3.76162C0.954613 3.49117 1.12862 3.2267 1.39906 3.1709C2.0689 3.03269 2.74625 2.91509 3.43042 2.81881C4.76294 2.63127 6.12122 2.52457 7.5001 2.50377V2C7.5001 1.72386 7.72396 1.5 8.0001 1.5ZM3.5001 5.42064L2.2389 10.5828C2.22467 10.641 2.23276 10.6947 2.25048 10.7322C2.26673 10.7666 2.28879 10.785 2.31525 10.7945C2.68463 10.9274 3.08333 11 3.5001 11C3.91687 11 4.31557 10.9274 4.68495 10.7945C4.71141 10.785 4.73347 10.7666 4.74972 10.7322C4.76744 10.6947 4.77552 10.641 4.76129 10.5828L3.5001 5.42064ZM12.5001 5.42064L11.2389 10.5828C11.2247 10.641 11.2328 10.6947 11.2505 10.7322C11.2667 10.7666 11.2888 10.785 11.3152 10.7945C11.6846 10.9274 12.0833 11 12.5001 11C12.9169 11 13.3156 10.9274 13.685 10.7945C13.7114 10.785 13.7335 10.7666 13.7497 10.7322C13.7674 10.6947 13.7755 10.641 13.7613 10.5828L12.5001 5.42064Z" fill="#71717A"/>
</svg>
