<svg width="24" height="24" viewBox="0 0 24 24" fill="none" xmlns="http://www.w3.org/2000/svg">
<path fill-rule="evenodd" clip-rule="evenodd" d="M18.9019 6.19245C19.5767 6.15008 20.1358 6.37959 20.5794 6.88101C20.8157 7.17405 20.9543 7.50849 20.995 7.88435C21.0017 10.6944 21.0017 13.5043 20.995 16.3143C20.9142 16.9395 20.6057 17.4166 20.0697 17.7455C19.5932 18.0087 19.0917 18.0678 18.5654 17.9226C17.8667 17.6871 17.2492 17.0274 17.2492 16.334L17.2345 14.7236C17.2269 13.9009 15.8873 13.826 15.2951 14.3972C14.7009 14.9703 14.0631 14.212 14.0626 13.3865C14.0624 12.986 14.0625 12.5817 14.0629 12.1848C14.0642 11.028 14.5299 9.92088 15.3518 9.10678C16.1793 8.28713 17.0239 7.44987 17.8133 6.66953C18.1269 6.40057 18.4898 6.24155 18.9019 6.19245Z" fill="#FAFAFA"/>
<path fill-rule="evenodd" clip-rule="evenodd" d="M18.9019 6.19245C19.5767 6.15008 20.1358 6.37959 20.5794 6.88101C20.8157 7.17405 20.9543 7.50849 20.995 7.88435C21.0017 10.6944 21.0017 13.5043 20.995 16.3143C20.9142 16.9395 20.6057 17.4166 20.0697 17.7455C19.5932 18.0087 19.0917 18.0678 18.5654 17.9226C17.8667 17.6871 17.2492 17.0274 17.2492 16.334L17.2345 14.7236C17.2269 13.9009 15.8873 13.826 15.2951 14.3972C14.7009 14.9703 14.0631 14.212 14.0626 13.3865C14.0624 12.986 14.0625 12.5817 14.0629 12.1848C14.0642 11.028 14.5299 9.92088 15.3518 9.10678C16.1793 8.28713 17.0239 7.44987 17.8133 6.66953C18.1269 6.40057 18.4898 6.24155 18.9019 6.19245Z" fill="#FAFAFA"/>
<path fill-rule="evenodd" clip-rule="evenodd" d="M11.4356 6.75384C12.1815 6.7132 12.7698 6.99491 13.2001 7.59898C13.3649 7.85713 13.4951 8.0625 13.4951 8.44411C13.5016 11.0058 13.5016 13.5673 13.4951 16.1289C13.3829 16.9058 12.9619 17.4348 12.2318 17.716C11.5751 17.914 10.9754 17.8059 10.4328 17.3917C10.0508 17.0686 9.82631 16.6575 9.75946 16.1584C9.74519 15.0556 8.40694 14.5034 7.62693 15.2831C6.93364 15.9761 6.24036 16.6692 5.54707 17.3622C4.98019 17.8149 4.35103 17.9262 3.65961 17.6964C2.98684 17.4201 2.58543 16.9239 2.45537 16.2076C2.387 15.6726 2.5148 15.191 2.83876 14.763C5.35347 12.2393 7.87173 9.71859 10.3935 7.20098C10.6957 6.94676 11.043 6.79772 11.4356 6.75384Z" fill="#FAFAFA"/>
<path fill-rule="evenodd" clip-rule="evenodd" d="M11.4356 6.75384C12.1815 6.7132 12.7698 6.99491 13.2001 7.59898C13.3649 7.85713 13.4951 8.0625 13.4951 8.44411C13.5016 11.0058 13.5016 13.5673 13.4951 16.1289C13.3829 16.9058 12.9619 17.4348 12.2318 17.716C11.5751 17.914 10.9754 17.8059 10.4328 17.3917C10.0508 17.0686 9.82631 16.6575 9.75946 16.1584C9.74519 15.0556 8.40694 14.5034 7.62693 15.2831C6.93364 15.9761 6.24036 16.6692 5.54707 17.3622C4.98019 17.8149 4.35103 17.9262 3.65961 17.6964C2.98684 17.4201 2.58543 16.9239 2.45537 16.2076C2.387 15.6726 2.5148 15.191 2.83876 14.763C5.35347 12.2393 7.87173 9.71859 10.3935 7.20098C10.6957 6.94676 11.043 6.79772 11.4356 6.75384Z" fill="#FAFAFA"/>
</svg>
