<svg width="20" height="20" viewBox="0 0 20 20" fill="none" xmlns="http://www.w3.org/2000/svg">
<path fill-rule="evenodd" clip-rule="evenodd" d="M4.0403 2.30917C5.98585 2.02311 7.97594 1.875 10.0002 1.875C12.0244 1.875 14.0143 2.02308 15.9597 2.30909C17.6083 2.55147 18.75 3.99537 18.75 5.61713V10.6329C18.75 12.2546 17.6083 13.6985 15.9596 13.9409C14.3436 14.1785 12.6968 14.3209 11.0251 14.3623C10.9388 14.3645 10.8599 14.399 10.8032 14.4557L7.31694 17.9419C7.13819 18.1207 6.86937 18.1742 6.63582 18.0774C6.40228 17.9807 6.25 17.7528 6.25 17.5V14.2042C5.50751 14.1362 4.77076 14.0482 4.0403 13.9408C2.3917 13.6984 1.25 12.2545 1.25 10.6328V5.6172C1.25 3.99546 2.3917 2.55157 4.0403 2.30917ZM10.0002 3.125C8.03699 3.125 6.10768 3.26863 4.22214 3.54587C3.23066 3.69165 2.5 4.57048 2.5 5.6172V10.6328C2.5 11.6795 3.23065 12.5583 4.22214 12.7041C5.11306 12.8351 6.01375 12.9363 6.92316 13.0066C7.24869 13.0317 7.5 13.3032 7.5 13.6297V15.9911L9.9193 13.5718C10.2072 13.2839 10.5934 13.1226 10.9942 13.1127C12.6152 13.0726 14.2116 12.9345 15.7778 12.7042C16.7693 12.5584 17.5 11.6796 17.5 10.6329V5.61713C17.5 4.5704 16.7693 3.69157 15.7778 3.5458C13.8925 3.26861 11.9633 3.125 10.0002 3.125ZM5.9375 8.125C5.9375 7.60723 6.35723 7.1875 6.875 7.1875C7.39277 7.1875 7.8125 7.60723 7.8125 8.125C7.8125 8.64277 7.39277 9.0625 6.875 9.0625C6.35723 9.0625 5.9375 8.64277 5.9375 8.125ZM9.0625 8.125C9.0625 7.60723 9.48223 7.1875 10 7.1875C10.5178 7.1875 10.9375 7.60723 10.9375 8.125C10.9375 8.64277 10.5178 9.0625 10 9.0625C9.48223 9.0625 9.0625 8.64277 9.0625 8.125ZM12.1875 8.125C12.1875 7.60723 12.6072 7.1875 13.125 7.1875C13.6428 7.1875 14.0625 7.60723 14.0625 8.125C14.0625 8.64277 13.6428 9.0625 13.125 9.0625C12.6072 9.0625 12.1875 8.64277 12.1875 8.125Z" fill="#3F3F46"/>
</svg>
