<svg width="128" height="128" viewBox="0 0 128 128" fill="none" xmlns="http://www.w3.org/2000/svg">
<path d="M38.4 1H89.6C96.3371 1 101.33 1.00078 105.282 1.32366C109.222 1.64559 112.039 2.28273 114.442 3.50685C118.77 5.71194 122.288 9.23049 124.493 13.5582C125.717 15.9607 126.354 18.7781 126.676 22.7183C126.999 26.6702 127 31.6629 127 38.4V89.6C127 96.3371 126.999 101.33 126.676 105.282C126.354 109.222 125.717 112.039 124.493 114.442C122.288 118.77 118.77 122.288 114.442 124.493C112.039 125.717 109.222 126.354 105.282 126.676C101.33 126.999 96.3371 127 89.6 127H38.4C31.6629 127 26.6702 126.999 22.7183 126.676C18.7781 126.354 15.9607 125.717 13.5582 124.493C9.23049 122.288 5.71194 118.77 3.50685 114.442C2.28273 112.039 1.64559 109.222 1.32366 105.282C1.00078 101.33 1 96.3371 1 89.6V38.4C1 31.6629 1.00078 26.6702 1.32366 22.7183C1.64559 18.7781 2.28273 15.9607 3.50685 13.5582C5.71194 9.23049 9.23049 5.71194 13.5582 3.50685C15.9607 2.28273 18.7781 1.64559 22.7183 1.32366C26.6702 1.00078 31.6629 1 38.4 1Z" fill="#09090B"/>
<path d="M38.4 1H89.6C96.3371 1 101.33 1.00078 105.282 1.32366C109.222 1.64559 112.039 2.28273 114.442 3.50685C118.77 5.71194 122.288 9.23049 124.493 13.5582C125.717 15.9607 126.354 18.7781 126.676 22.7183C126.999 26.6702 127 31.6629 127 38.4V89.6C127 96.3371 126.999 101.33 126.676 105.282C126.354 109.222 125.717 112.039 124.493 114.442C122.288 118.77 118.77 122.288 114.442 124.493C112.039 125.717 109.222 126.354 105.282 126.676C101.33 126.999 96.3371 127 89.6 127H38.4C31.6629 127 26.6702 126.999 22.7183 126.676C18.7781 126.354 15.9607 125.717 13.5582 124.493C9.23049 122.288 5.71194 118.77 3.50685 114.442C2.28273 112.039 1.64559 109.222 1.32366 105.282C1.00078 101.33 1 96.3371 1 89.6V38.4C1 31.6629 1.00078 26.6702 1.32366 22.7183C1.64559 18.7781 2.28273 15.9607 3.50685 13.5582C5.71194 9.23049 9.23049 5.71194 13.5582 3.50685C15.9607 2.28273 18.7781 1.64559 22.7183 1.32366C26.6702 1.00078 31.6629 1 38.4 1Z" stroke="white" stroke-width="2"/>
<path fill-rule="evenodd" clip-rule="evenodd" d="M56.6322 38.7336C58.2327 37.0511 60.49 36.0016 62.992 36.0016V36C67.8455 36 71.7794 39.9475 71.7794 44.8175V83.1808C71.7794 88.0509 67.8455 91.9983 62.992 91.9983C58.1387 91.9983 54.2047 88.0509 54.2047 83.1808V74.77C54.2047 71.5744 50.355 69.9733 48.1026 72.2334L31.0013 89.3932C27.5701 92.8363 22.0048 92.8363 18.5735 89.3932C15.1422 85.9503 15.1422 80.3658 18.5735 76.9229L56.6322 38.7336ZM91.8526 38.7336C93.4531 37.0511 95.7104 36.0016 98.2126 36.0016C103.066 36.0016 107 39.9491 107 44.8191V83.1825C107 88.0524 103.066 92 98.2126 92C93.3591 92 89.4251 88.0524 89.4251 83.1825V74.7717C89.4251 71.5759 85.5755 69.9749 83.3231 72.2351L81.8912 73.6717C79.3842 76.1873 75.0967 74.4154 75.0838 70.8568L75.0417 59.7075C75.0319 57.0894 76.0631 54.5771 77.9069 52.7271L91.8526 38.7336Z" fill="white"/>
</svg>
