<svg width="25" height="24" viewBox="0 0 25 24" fill="none" xmlns="http://www.w3.org/2000/svg">
<path fill-rule="evenodd" clip-rule="evenodd" d="M9.40003 5.25C8.98581 5.25 8.65002 5.58579 8.65002 6C8.65002 6.41421 8.98581 6.75 9.40002 6.75C9.81424 6.75 10.15 6.41421 10.15 6C10.15 5.58579 9.81424 5.25 9.40003 5.25ZM7.27805 5.25C7.58693 4.3761 8.42036 3.75 9.40002 3.75C10.3797 3.75 11.2131 4.37611 11.522 5.25L20.65 5.25C21.0642 5.25 21.4 5.58579 21.4 6C21.4 6.41421 21.0642 6.75 20.65 6.75H11.522C11.2131 7.62389 10.3797 8.25 9.40002 8.25C8.42036 8.25 7.58693 7.62389 7.27805 6.75H4.15002C3.73581 6.75 3.40002 6.41421 3.40002 6C3.40002 5.58579 3.73581 5.25 4.15002 5.25H7.27805ZM15.4 11.25C14.9858 11.25 14.65 11.5858 14.65 12C14.65 12.4142 14.9858 12.75 15.4 12.75C15.8142 12.75 16.15 12.4142 16.15 12C16.15 11.5858 15.8142 11.25 15.4 11.25ZM13.2781 11.25C13.5869 10.3761 14.4204 9.75 15.4 9.75C16.3797 9.75 17.2131 10.3761 17.522 11.25L20.65 11.25C21.0642 11.25 21.4 11.5858 21.4 12C21.4 12.4142 21.0642 12.75 20.65 12.75L17.522 12.75C17.2131 13.6239 16.3797 14.25 15.4 14.25C14.4204 14.25 13.5869 13.6239 13.2781 12.75H4.15002C3.73581 12.75 3.40002 12.4142 3.40002 12C3.40002 11.5858 3.73581 11.25 4.15002 11.25H13.2781ZM9.40002 17.25C8.98581 17.25 8.65002 17.5858 8.65002 18C8.65002 18.4142 8.98581 18.75 9.40002 18.75C9.81424 18.75 10.15 18.4142 10.15 18C10.15 17.5858 9.81424 17.25 9.40002 17.25ZM7.27805 17.25C7.58693 16.3761 8.42036 15.75 9.40002 15.75C10.3797 15.75 11.2131 16.3761 11.522 17.25H20.65C21.0642 17.25 21.4 17.5858 21.4 18C21.4 18.4142 21.0642 18.75 20.65 18.75H11.522C11.2131 19.6239 10.3797 20.25 9.40002 20.25C8.42036 20.25 7.58693 19.6239 7.27805 18.75L4.15002 18.75C3.73581 18.75 3.40002 18.4142 3.40002 18C3.40002 17.5858 3.73581 17.25 4.15002 17.25L7.27805 17.25Z" fill="black"/>
</svg>
