<svg width="24" height="24" viewBox="0 0 24 24" fill="none" xmlns="http://www.w3.org/2000/svg">
<path fill-rule="evenodd" clip-rule="evenodd" d="M6 12C6 15.3137 8.68629 18 12 18C15.3137 18 18 15.3137 18 12C18 8.68629 15.3137 6 12 6C8.68629 6 6 8.68629 6 12ZM12 4C7.58172 4 4 7.58172 4 12C4 16.4183 7.58172 20 12 20C16.4183 20 20 16.4183 20 12C20 7.58172 16.4183 4 12 4Z" fill="#059669"/>
<path fill-rule="evenodd" clip-rule="evenodd" d="M14.8785 9.3807C15.0039 9.4675 15.0377 9.64342 14.9542 9.77361L11.6815 14.8736C11.6361 14.9442 11.5627 14.99 11.4814 14.9984C11.4001 15.0067 11.3195 14.9768 11.2617 14.9168L9.07988 12.6501C8.97337 12.5395 8.97337 12.3601 9.07988 12.2494C9.18639 12.1388 9.35907 12.1388 9.46557 12.2494L11.4121 14.2717L14.5003 9.45929C14.5839 9.32909 14.7532 9.29391 14.8785 9.3807Z" fill="#059669"/>
<path fill-rule="evenodd" clip-rule="evenodd" d="M14.0795 9.18925C14.312 8.827 14.7992 8.71757 15.1632 8.96966C15.5153 9.21351 15.6004 9.69236 15.375 10.0437L12.1023 15.1436C11.9773 15.3384 11.7699 15.4713 11.5326 15.4958C11.2949 15.5202 11.0635 15.4319 10.9015 15.2635L8.71965 12.9969C8.42678 12.6926 8.42678 12.2069 8.71965 11.9027C9.02284 11.5877 9.52261 11.5877 9.8258 11.9027L9.46557 12.2494L9.45588 12.2588M9.46557 12.2494L9.8258 11.9027L11.3333 13.4688L14.0795 9.18925" fill="#059669"/>
</svg>
