<svg width="20" height="20" viewBox="0 0 20 20" fill="none" xmlns="http://www.w3.org/2000/svg">
<path fill-rule="evenodd" clip-rule="evenodd" d="M3.75 3.75C3.05964 3.75 2.5 4.30964 2.5 5V7.83446C2.86772 7.62174 3.29464 7.5 3.75 7.5H16.25C16.7054 7.5 17.1323 7.62174 17.5 7.83446V7.5C17.5 6.80964 16.9404 6.25 16.25 6.25H11.7678C11.2705 6.25 10.7936 6.05246 10.4419 5.70083L8.67417 3.93306C8.55696 3.81585 8.39799 3.75 8.23223 3.75H3.75ZM17.5 10C17.5 9.30964 16.9404 8.75 16.25 8.75H3.75C3.05964 8.75 2.5 9.30964 2.5 10V15C2.5 15.6904 3.05964 16.25 3.75 16.25H16.25C16.9404 16.25 17.5 15.6904 17.5 15V10ZM18.75 15C18.75 16.3807 17.6307 17.5 16.25 17.5H3.75C2.36929 17.5 1.25 16.3807 1.25 15V5C1.25 3.61929 2.36929 2.5 3.75 2.5H8.23223C8.72951 2.5 9.20643 2.69754 9.55806 3.04917L11.3258 4.81694C11.443 4.93415 11.602 5 11.7678 5H16.25C17.6307 5 18.75 6.11929 18.75 7.5V15Z" fill="#FAFAFA"/>
</svg>
