<svg width="20" height="20" viewBox="0 0 20 20" fill="none" xmlns="http://www.w3.org/2000/svg">
<path fill-rule="evenodd" clip-rule="evenodd" d="M9.11612 2.49997C9.90358 1.71251 11.25 2.27023 11.25 3.38385V16.6161C11.25 17.7297 9.90357 18.2874 9.11612 17.5L5.36612 13.75H3.75755C2.80643 13.75 1.82588 13.1963 1.54109 12.1624C1.35122 11.4732 1.25 10.7479 1.25 9.99997C1.25 9.25204 1.35122 8.52675 1.54109 7.83752C1.82588 6.80367 2.80643 6.24997 3.75755 6.24997H5.36612L9.11612 2.49997L9.55806 2.94191L9.11612 2.49997ZM10 3.38385L6.06694 7.31691C5.94973 7.43412 5.79076 7.49997 5.625 7.49997H3.75755C3.24309 7.49997 2.85063 7.79039 2.7462 8.16949C2.58585 8.75159 2.5 9.36526 2.5 9.99997C2.5 10.6347 2.58585 11.2484 2.7462 11.8305C2.85063 12.2095 3.24309 12.5 3.75755 12.5H5.625C5.79076 12.5 5.94973 12.5658 6.06694 12.683L10 16.6161V3.38385ZM15.4864 4.25468C15.7305 4.01061 16.1262 4.01061 16.3703 4.25468C19.5433 7.42769 19.5433 12.5722 16.3703 15.7452C16.1262 15.9892 15.7305 15.9892 15.4864 15.7452C15.2423 15.5011 15.2423 15.1054 15.4864 14.8613C18.1713 12.1764 18.1713 7.82342 15.4864 5.13857C15.2423 4.89449 15.2423 4.49876 15.4864 4.25468ZM13.2769 6.46446C13.521 6.22038 13.9167 6.22038 14.1608 6.46446C16.1134 8.41708 16.1134 11.5829 14.1608 13.5355C13.9167 13.7796 13.521 13.7796 13.2769 13.5355C13.0329 13.2915 13.0329 12.8957 13.2769 12.6516C14.7414 11.1872 14.7414 8.81281 13.2769 7.34835C13.0329 7.10427 13.0329 6.70854 13.2769 6.46446Z" fill="#3F3F46"/>
</svg>
