<svg width="24" height="24" viewBox="0 0 24 24" fill="none" xmlns="http://www.w3.org/2000/svg">
<path fill-rule="evenodd" clip-rule="evenodd" d="M1.5 7.125C1.5 6.08947 2.33947 5.25 3.375 5.25H9.375C10.4105 5.25 11.25 6.08947 11.25 7.125V10.875C11.25 11.9105 10.4105 12.75 9.375 12.75H3.375C2.33947 12.75 1.5 11.9105 1.5 10.875V7.125ZM3.375 6.75C3.16789 6.75 3 6.91789 3 7.125V10.875C3 11.0821 3.16789 11.25 3.375 11.25H9.375C9.58211 11.25 9.75 11.0821 9.75 10.875V7.125C9.75 6.91789 9.58211 6.75 9.375 6.75H3.375ZM13.5 8.625C13.5 7.58947 14.3395 6.75 15.375 6.75H20.625C21.6605 6.75 22.5 7.58947 22.5 8.625V16.875C22.5 17.9105 21.6605 18.75 20.625 18.75H15.375C14.3395 18.75 13.5 17.9105 13.5 16.875V8.625ZM15.375 8.25C15.1679 8.25 15 8.41789 15 8.625V16.875C15 17.0821 15.1679 17.25 15.375 17.25H20.625C20.8321 17.25 21 17.0821 21 16.875V8.625C21 8.41789 20.8321 8.25 20.625 8.25H15.375ZM3 16.125C3 15.0895 3.83947 14.25 4.875 14.25H10.125C11.1605 14.25 12 15.0895 12 16.125V18.375C12 19.4105 11.1605 20.25 10.125 20.25H4.875C3.83947 20.25 3 19.4105 3 18.375V16.125ZM4.875 15.75C4.66789 15.75 4.5 15.9179 4.5 16.125V18.375C4.5 18.5821 4.66789 18.75 4.875 18.75H10.125C10.3321 18.75 10.5 18.5821 10.5 18.375V16.125C10.5 15.9179 10.3321 15.75 10.125 15.75H4.875Z" fill="#71717A"/>
</svg>
