<svg width="16" height="16" viewBox="0 0 16 16" fill="none" xmlns="http://www.w3.org/2000/svg">
<path fill-rule="evenodd" clip-rule="evenodd" d="M10.5 1.5L14 1.5C14.1326 1.5 14.2598 1.55268 14.3536 1.64645C14.4473 1.74021 14.5 1.86739 14.5 2V5.5C14.5 5.77614 14.2761 6 14 6C13.7239 6 13.5 5.77614 13.5 5.5V3.20711L5.35355 11.3536C5.15829 11.5488 4.84171 11.5488 4.64645 11.3536C4.45118 11.1583 4.45118 10.8417 4.64645 10.6464L12.7929 2.5L10.5 2.5C10.2239 2.5 10 2.27614 10 2C10 1.72386 10.2239 1.5 10.5 1.5ZM3.5 4.5C2.94772 4.5 2.5 4.94772 2.5 5.5V12.5C2.5 13.0523 2.94772 13.5 3.5 13.5H10.5C11.0523 13.5 11.5 13.0523 11.5 12.5V7C11.5 6.72386 11.7239 6.5 12 6.5C12.2761 6.5 12.5 6.72386 12.5 7V12.5C12.5 13.6046 11.6046 14.5 10.5 14.5H3.5C2.39543 14.5 1.5 13.6046 1.5 12.5V5.5C1.5 4.39543 2.39543 3.5 3.5 3.5H9C9.27614 3.5 9.5 3.72386 9.5 4C9.5 4.27614 9.27614 4.5 9 4.5H3.5Z" fill="#71717A"/>
</svg>
