<svg width="200" height="200" viewBox="0 0 200 200" fill="none" xmlns="http://www.w3.org/2000/svg">
<path fill-rule="evenodd" clip-rule="evenodd" d="M153.156 54.7248C158.171 54.4053 162.327 56.1358 165.624 59.9164C167.38 62.1257 168.41 64.6473 168.713 67.4812C168.762 88.6678 168.762 109.854 168.713 131.04C168.112 135.754 165.819 139.351 161.836 141.831C158.294 143.816 154.567 144.261 150.655 143.166C145.462 141.391 140.872 136.417 140.872 131.189L140.733 115.761C140.689 110.8 134.819 108.3 131.298 111.744C129.722 113.286 128.13 114.843 126.613 116.328C123.081 119.783 117.197 117.257 117.191 112.279C117.184 105.961 117.187 99.3714 117.202 93.3233C117.212 88.8153 119.001 84.5013 122.159 81.3299C129.735 73.7229 137.721 65.6862 145.065 58.3218C147.396 56.294 150.093 55.095 153.156 54.7248Z" fill="white" fill-opacity="0.8"/>
<path fill-rule="evenodd" clip-rule="evenodd" d="M97.0459 59.4038C102.63 59.0995 107.034 61.2084 110.255 65.7303C111.489 67.6628 112.463 69.2002 112.463 72.0569C112.512 91.233 112.512 110.408 112.463 129.585C111.623 135.4 108.471 139.36 103.007 141.465C98.0901 142.948 93.6011 142.138 89.5397 139.038C86.68 136.619 84.9992 133.542 84.4988 129.805C84.4608 126.866 84.4302 123.927 84.4069 120.987C84.3674 115.987 78.3084 113.483 74.7718 117.018C67.503 124.284 60.2342 131.55 52.9654 138.817C48.7217 142.205 44.012 143.039 38.8361 141.318C33.7998 139.25 30.7949 135.535 29.8213 130.173C29.3095 126.168 30.2661 122.564 32.6913 119.359C51.5161 100.467 70.3675 81.5975 89.2453 62.751C91.5075 60.8479 94.1074 59.7322 97.0459 59.4038Z" fill="white" fill-opacity="0.8"/>
</svg>
