<svg width="16" height="16" viewBox="0 0 16 16" fill="none" xmlns="http://www.w3.org/2000/svg">
<path fill-rule="evenodd" clip-rule="evenodd" d="M8 2.5C4.96243 2.5 2.5 4.96243 2.5 8C2.5 11.0376 4.96243 13.5 8 13.5C11.0376 13.5 13.5 11.0376 13.5 8C13.5 4.96243 11.0376 2.5 8 2.5ZM1.5 8C1.5 4.41015 4.41015 1.5 8 1.5C11.5899 1.5 14.5 4.41015 14.5 8C14.5 11.5899 11.5899 14.5 8 14.5C4.41015 14.5 1.5 11.5899 1.5 8ZM8 3.5C8.27614 3.5 8.5 3.72386 8.5 4V4.5438C8.91786 4.61786 9.31631 4.78588 9.64609 5.04786L9.92269 5.26758C10.1389 5.43935 10.1749 5.75387 10.0032 5.97009C9.83142 6.18631 9.51689 6.22235 9.30067 6.05059L9.02408 5.83086C8.87265 5.71057 8.69279 5.62308 8.5 5.5684V7.53974C8.93476 7.60957 9.35873 7.7727 9.71424 8.03934C10.211 8.41189 10.5 8.93565 10.5 9.5C10.5 10.0644 10.211 10.5881 9.71424 10.9607C9.35873 11.2273 8.93476 11.3904 8.5 11.4603V12C8.5 12.2761 8.27614 12.5 8 12.5C7.72386 12.5 7.5 12.2761 7.5 12V11.4602C7.06529 11.3904 6.64138 11.2273 6.28591 10.9607L5.69999 10.5212C5.47908 10.3555 5.43432 10.0421 5.60001 9.8212C5.7657 9.60029 6.0791 9.55552 6.30001 9.72121L6.88592 10.1607C7.0576 10.2894 7.26856 10.3848 7.5 10.4411V8.45624C7.08844 8.38336 6.68869 8.21828 6.35372 7.95218C5.87881 7.57491 5.61168 7.05248 5.61168 6.50002C5.61168 5.94755 5.87881 5.42512 6.35372 5.04786C6.68355 4.78584 7.08207 4.61781 7.5 4.54377V4C7.5 3.72386 7.72386 3.5 8 3.5ZM7.5 5.56834C7.30714 5.62303 7.12721 5.71053 6.97574 5.83086C6.71325 6.03938 6.61168 6.28472 6.61168 6.50002C6.61168 6.71532 6.71325 6.96066 6.97574 7.16918C7.12402 7.28697 7.30345 7.37584 7.5 7.43165V5.56834ZM8.5 8.55891V10.4411C8.7315 10.3848 8.94252 10.2895 9.11423 10.1607C9.39853 9.94743 9.5 9.70342 9.5 9.5C9.5 9.29658 9.39853 9.05257 9.11423 8.83933C8.94252 8.71055 8.7315 8.6152 8.5 8.55891Z" fill="#71717A"/>
</svg>
