<svg width="16" height="16" viewBox="0 0 16 16" fill="none" xmlns="http://www.w3.org/2000/svg">
<path fill-rule="evenodd" clip-rule="evenodd" d="M1.5 3C1.5 2.72386 1.72386 2.5 2 2.5H11.5C11.7761 2.5 12 2.72386 12 3C12 3.27614 11.7761 3.5 11.5 3.5H2C1.72386 3.5 1.5 3.27614 1.5 3ZM1.5 6C1.5 5.72386 1.72386 5.5 2 5.5H8.5C8.77614 5.5 9 5.72386 9 6C9 6.27614 8.77614 6.5 8.5 6.5H2C1.72386 6.5 1.5 6.27614 1.5 6ZM11.5 5.5C11.7761 5.5 12 5.72386 12 6V12.7929L13.6464 11.1464C13.8417 10.9512 14.1583 10.9512 14.3536 11.1464C14.5488 11.3417 14.5488 11.6583 14.3536 11.8536L11.8536 14.3536C11.6583 14.5488 11.3417 14.5488 11.1464 14.3536L8.64645 11.8536C8.45118 11.6583 8.45118 11.3417 8.64645 11.1464C8.84171 10.9512 9.15829 10.9512 9.35355 11.1464L11 12.7929V6C11 5.72386 11.2239 5.5 11.5 5.5ZM1.5 9C1.5 8.72386 1.72386 8.5 2 8.5H8.5C8.77614 8.5 9 8.72386 9 9C9 9.27614 8.77614 9.5 8.5 9.5H2C1.72386 9.5 1.5 9.27614 1.5 9Z" fill="#27272A"/>
</svg>
