<svg width="32" height="32" viewBox="0 0 32 32" fill="none" xmlns="http://www.w3.org/2000/svg">
<path fill-rule="evenodd" clip-rule="evenodd" d="M3 5.5C3 4.11929 4.11929 3 5.5 3H12.5C13.8807 3 15 4.11929 15 5.5V8.51472L17.1317 6.38299C18.108 5.40668 19.691 5.40668 20.6673 6.38299L25.617 11.3327C26.5933 12.309 26.5933 13.892 25.617 14.8683L23.4853 17H26.5C27.8807 17 29 18.1193 29 19.5V26.5C29 27.8807 27.8807 29 26.5 29H9C7.35311 29 5.86119 28.3365 4.77699 27.2622C3.67967 26.1749 3 24.6668 3 23V5.5ZM6.17157 25.8284C6.1711 25.8279 6.17062 25.8275 6.17014 25.827C5.44712 25.1032 5 24.1038 5 23V5.5C5 5.22386 5.22386 5 5.5 5H12.5C12.7761 5 13 5.22386 13 5.5V23C13 24.1037 12.553 25.103 11.8301 25.8267C11.8296 25.8273 11.829 25.8279 11.8284 25.8284C11.8241 25.8328 11.8197 25.8371 11.8153 25.8415C10.637 27.0091 8.91339 27.2942 7.46887 26.6965C6.99167 26.4986 6.56108 26.211 6.19813 25.8547C6.18925 25.846 6.1804 25.8372 6.17157 25.8284ZM13.4853 27H26.5C26.7761 27 27 26.7761 27 26.5V19.5C27 19.2239 26.7761 19 26.5 19H21.4853L13.4853 27ZM15 22.6569L24.2028 13.4541C24.3981 13.2588 24.3981 12.9422 24.2028 12.747L19.2531 7.7972C19.0578 7.60194 18.7412 7.60194 18.5459 7.7972L15 11.3431V22.6569ZM8 23C8 22.4477 8.44772 22 9 22H9.01C9.56229 22 10.01 22.4477 10.01 23V23.01C10.01 23.5623 9.56229 24.01 9.01 24.01H9C8.44772 24.01 8 23.5623 8 23.01V23Z" fill="#71717A"/>
</svg>
