<svg width="20" height="20" viewBox="0 0 20 20" fill="none" xmlns="http://www.w3.org/2000/svg">
<path fill-rule="evenodd" clip-rule="evenodd" d="M2.75521 8.05876C3.82728 4.05777 7.9398 1.6834 11.9408 2.75546C13.2595 3.1088 14.403 3.79342 15.304 4.69601C15.304 4.69608 15.3039 4.69593 15.304 4.69601L16.8878 6.2798V3.62967C16.8878 3.28449 17.1676 3.00467 17.5128 3.00467C17.858 3.00467 18.1378 3.28449 18.1378 3.62967V7.79017C18.1378 8.13535 17.858 8.41517 17.5128 8.41517H13.3523C13.0071 8.41517 12.7273 8.13535 12.7273 7.79017C12.7273 7.44499 13.0071 7.16517 13.3523 7.16517H16.0054L14.4199 5.57969C13.67 4.82841 12.7181 4.25784 11.6173 3.96287C8.28311 3.06949 4.85601 5.04813 3.96262 8.38229C3.87328 8.7157 3.53057 8.91357 3.19716 8.82423C2.86374 8.73489 2.66588 8.39218 2.75521 8.05876ZM16.8022 11.1756C17.1356 11.2649 17.3334 11.6076 17.2441 11.941C16.172 15.942 12.0595 18.3164 8.05851 17.2444C6.73987 16.891 5.59637 16.2064 4.69541 15.3039L3.11176 13.7192V16.3702C3.11176 16.7153 2.83193 16.9952 2.48676 16.9952C2.14158 16.9952 1.86176 16.7153 1.86176 16.3702V12.2096C1.86176 11.8644 2.14158 11.5846 2.48676 11.5846L6.64729 11.5846C6.99247 11.5846 7.27229 11.8644 7.27229 12.2096C7.27229 12.5548 6.99247 12.8346 6.64729 12.8346L3.99495 12.8346L5.57958 14.4203C6.32946 15.1716 7.28122 15.742 8.38204 16.0369C11.7162 16.9303 15.1433 14.9517 16.0367 11.6175C16.126 11.2841 16.4687 11.0862 16.8022 11.1756Z" fill="#27272A"/>
</svg>
