<svg width="20" height="20" viewBox="0 0 20 20" fill="none" xmlns="http://www.w3.org/2000/svg">
<path fill-rule="evenodd" clip-rule="evenodd" d="M10 3.125C6.20304 3.125 3.125 6.20304 3.125 10C3.125 13.797 6.20304 16.875 10 16.875C13.797 16.875 16.875 13.797 16.875 10C16.875 6.20304 13.797 3.125 10 3.125ZM1.875 10C1.875 5.51269 5.51269 1.875 10 1.875C14.4873 1.875 18.125 5.51269 18.125 10C18.125 14.4873 14.4873 18.125 10 18.125C5.51269 18.125 1.875 14.4873 1.875 10ZM6.875 10C6.875 9.65482 7.15482 9.375 7.5 9.375H12.5C12.8452 9.375 13.125 9.65482 13.125 10C13.125 10.3452 12.8452 10.625 12.5 10.625H7.5C7.15482 10.625 6.875 10.3452 6.875 10Z" fill="#27272A"/>
</svg>
