<svg width="12" height="12" viewBox="0 0 12 12" fill="none" xmlns="http://www.w3.org/2000/svg">
<path fill-rule="evenodd" clip-rule="evenodd" d="M3.375 3.375C3.375 1.92525 4.55025 0.75 6 0.75C7.44975 0.75 8.625 1.92525 8.625 3.375V4.875C9.45343 4.875 10.125 5.54657 10.125 6.375V9.75C10.125 10.5784 9.45343 11.25 8.625 11.25H3.375C2.54657 11.25 1.875 10.5784 1.875 9.75V6.375C1.875 5.54657 2.54657 4.875 3.375 4.875V3.375ZM3.375 5.625C2.96079 5.625 2.625 5.96079 2.625 6.375V9.75C2.625 10.1642 2.96079 10.5 3.375 10.5H8.625C9.03921 10.5 9.375 10.1642 9.375 9.75V6.375C9.375 5.96079 9.03921 5.625 8.625 5.625H3.375ZM7.875 4.875H4.125V3.375C4.125 2.33947 4.96447 1.5 6 1.5C7.03553 1.5 7.875 2.33947 7.875 3.375V4.875Z" fill="#3F3F46"/>
</svg>
