<svg width="16" height="16" viewBox="0 0 16 16" fill="none" xmlns="http://www.w3.org/2000/svg">
<path fill-rule="evenodd" clip-rule="evenodd" d="M2.5 3.2069V11.674C2.98187 11.5602 3.48416 11.5 4 11.5C5.28831 11.5 6.4897 11.8752 7.5 12.5219V4.25714C6.54883 3.4715 5.33001 3 4 3C3.4794 3 2.97636 3.07219 2.5 3.2069ZM8.5 4.25714V12.5219C9.5103 11.8752 10.7117 11.5 12 11.5C12.5158 11.5 13.0181 11.5602 13.5 11.674V3.2069C13.0236 3.07219 12.5206 3 12 3C10.67 3 9.45117 3.4715 8.5 4.25714ZM8 3.37619C6.89719 2.51417 5.50815 2 4 2C3.24118 2 2.51171 2.13024 1.83338 2.36999C1.63358 2.44061 1.5 2.6295 1.5 2.84141V12.3414C1.5 12.5037 1.57879 12.6559 1.71131 12.7496C1.84383 12.8434 2.01359 12.8669 2.16662 12.8128C2.73941 12.6104 3.35627 12.5 4 12.5C5.40897 12.5 6.69316 13.0292 7.66654 13.9004C7.85638 14.0703 8.14362 14.0703 8.33346 13.9004C9.30684 13.0292 10.591 12.5 12 12.5C12.6437 12.5 13.2606 12.6104 13.8334 12.8128C13.9864 12.8669 14.1562 12.8434 14.2887 12.7496C14.4212 12.6559 14.5 12.5037 14.5 12.3414V2.84141C14.5 2.6295 14.3664 2.44061 14.1666 2.36999C13.4883 2.13024 12.7588 2 12 2C10.4918 2 9.10281 2.51417 8 3.37619Z" fill="#09090B"/>
</svg>
