<svg width="20" height="20" viewBox="0 0 20 20" fill="none" xmlns="http://www.w3.org/2000/svg">
<path fill-rule="evenodd" clip-rule="evenodd" d="M2.68306 2.68306C2.92714 2.43898 3.32286 2.43898 3.56694 2.68306L6.875 5.99112V3.75C6.875 3.40482 7.15482 3.125 7.5 3.125C7.84518 3.125 8.125 3.40482 8.125 3.75V7.5C8.125 7.84518 7.84518 8.125 7.5 8.125L3.75 8.125C3.40482 8.125 3.125 7.84518 3.125 7.5C3.125 7.15482 3.40482 6.875 3.75 6.875L5.99112 6.875L2.68306 3.56694C2.43898 3.32286 2.43898 2.92714 2.68306 2.68306ZM17.3169 2.68306C17.561 2.92714 17.561 3.32286 17.3169 3.56694L14.0089 6.875H16.25C16.5952 6.875 16.875 7.15482 16.875 7.5C16.875 7.84518 16.5952 8.125 16.25 8.125H12.5C12.1548 8.125 11.875 7.84518 11.875 7.5V3.75C11.875 3.40482 12.1548 3.125 12.5 3.125C12.8452 3.125 13.125 3.40482 13.125 3.75V5.99112L16.4331 2.68306C16.6771 2.43898 17.0729 2.43898 17.3169 2.68306ZM3.125 12.5C3.125 12.1548 3.40482 11.875 3.75 11.875L7.5 11.875C7.84518 11.875 8.125 12.1548 8.125 12.5L8.125 16.25C8.125 16.5952 7.84518 16.875 7.5 16.875C7.15482 16.875 6.875 16.5952 6.875 16.25L6.875 14.0089L3.56694 17.3169C3.32286 17.561 2.92714 17.561 2.68306 17.3169C2.43898 17.0729 2.43898 16.6771 2.68306 16.4331L5.99112 13.125L3.75 13.125C3.40482 13.125 3.125 12.8452 3.125 12.5ZM11.875 12.5C11.875 12.1548 12.1548 11.875 12.5 11.875H16.25C16.5952 11.875 16.875 12.1548 16.875 12.5C16.875 12.8452 16.5952 13.125 16.25 13.125H14.0089L17.3169 16.4331C17.561 16.6771 17.561 17.0729 17.3169 17.3169C17.0729 17.561 16.6771 17.561 16.4331 17.3169L13.125 14.0089L13.125 16.25C13.125 16.5952 12.8452 16.875 12.5 16.875C12.1548 16.875 11.875 16.5952 11.875 16.25L11.875 12.5Z" fill="#09090B"/>
</svg>
