<svg width="20" height="20" viewBox="0 0 20 20" fill="none" xmlns="http://www.w3.org/2000/svg">
<path fill-rule="evenodd" clip-rule="evenodd" d="M9.55806 1.43306C9.80214 1.18898 10.1979 1.18898 10.4419 1.43306L12.9419 3.93306C13.186 4.17714 13.186 4.57287 12.9419 4.81694C12.6979 5.06102 12.3021 5.06102 12.0581 4.81694L10.625 3.38388L10.625 12.5C10.625 12.8452 10.3452 13.125 10 13.125C9.65482 13.125 9.375 12.8452 9.375 12.5L9.375 3.38388L7.94194 4.81694C7.69786 5.06102 7.30214 5.06102 7.05806 4.81694C6.81398 4.57286 6.81398 4.17714 7.05806 3.93306L9.55806 1.43306ZM6.25 7.5C5.55964 7.5 5 8.05964 5 8.75V16.25C5 16.9404 5.55964 17.5 6.25 17.5H13.75C14.4404 17.5 15 16.9404 15 16.25V8.75C15 8.05964 14.4404 7.5 13.75 7.5H12.5C12.1548 7.5 11.875 7.22018 11.875 6.875C11.875 6.52982 12.1548 6.25 12.5 6.25H13.75C15.1307 6.25 16.25 7.36929 16.25 8.75V16.25C16.25 17.6307 15.1307 18.75 13.75 18.75H6.25C4.86929 18.75 3.75 17.6307 3.75 16.25V8.75C3.75 7.36929 4.86929 6.25 6.25 6.25H7.5C7.84518 6.25 8.125 6.52982 8.125 6.875C8.125 7.22018 7.84518 7.5 7.5 7.5H6.25Z" fill="#27272A"/>
</svg>
