<svg width="20" height="20" viewBox="0 0 20 20" fill="none" xmlns="http://www.w3.org/2000/svg">
<path fill-rule="evenodd" clip-rule="evenodd" d="M10.0009 4.375C6.41139 4.375 3.36399 6.70311 2.28943 9.93346C2.2746 9.97803 2.27462 10.0265 2.28947 10.071C3.36537 13.2991 6.4116 15.625 9.99946 15.625C13.589 15.625 16.6364 13.2969 17.711 10.0665C17.7258 10.022 17.7258 9.97352 17.7109 9.92896C16.635 6.70094 13.5888 4.375 10.0009 4.375ZM1.10333 9.53891C2.34271 5.81309 5.85708 3.125 10.0009 3.125C14.1428 3.125 17.6559 5.8106 18.8968 9.53371C18.9971 9.8346 18.9972 10.1601 18.8971 10.4611C17.6577 14.1869 14.1433 16.875 9.99946 16.875C5.85755 16.875 2.34452 14.1894 1.1036 10.4663C1.00332 10.1654 1.00322 9.83986 1.10333 9.53891ZM10.0002 8.125C8.96471 8.125 8.12524 8.96447 8.12524 10C8.12524 11.0355 8.96471 11.875 10.0002 11.875C11.0358 11.875 11.8752 11.0355 11.8752 10C11.8752 8.96447 11.0358 8.125 10.0002 8.125ZM6.87524 10C6.87524 8.27411 8.27435 6.875 10.0002 6.875C11.7261 6.875 13.1252 8.27411 13.1252 10C13.1252 11.7259 11.7261 13.125 10.0002 13.125C8.27435 13.125 6.87524 11.7259 6.87524 10Z" fill="#27272A"/>
</svg>
