<svg width="24" height="24" viewBox="0 0 24 24" fill="none" xmlns="http://www.w3.org/2000/svg">
<path fill-rule="evenodd" clip-rule="evenodd" d="M10.9393 2.99999C11.8843 2.05505 13.5 2.7243 13.5 4.06066V19.9393C13.5 21.2757 11.8843 21.9449 10.9393 21L6.43934 16.5H4.50905C3.36772 16.5 2.19106 15.8356 1.8493 14.5949C1.62147 13.7679 1.5 12.8975 1.5 12C1.5 11.1025 1.62147 10.2321 1.8493 9.40505C2.19106 8.16443 3.36772 7.5 4.50905 7.5H6.43934L10.9393 2.99999L11.4697 3.53032L10.9393 2.99999ZM12 4.06066L7.28033 8.78033C7.13968 8.92098 6.94891 9 6.75 9H4.50905C3.8917 9 3.42075 9.3485 3.29544 9.80342C3.10302 10.5019 3 11.2383 3 12C3 12.7617 3.10302 13.4981 3.29544 14.1966C3.42075 14.6515 3.8917 15 4.50905 15H6.75C6.94891 15 7.13968 15.079 7.28033 15.2197L12 19.9393V4.06066ZM16.7197 9.21967C17.0126 8.92677 17.4874 8.92677 17.7803 9.21967L19.5 10.9393L21.2197 9.21967C21.5126 8.92677 21.9874 8.92677 22.2803 9.21967C22.5732 9.51256 22.5732 9.98743 22.2803 10.2803L20.5607 12L22.2803 13.7197C22.5732 14.0126 22.5732 14.4874 22.2803 14.7803C21.9874 15.0732 21.5126 15.0732 21.2197 14.7803L19.5 13.0607L17.7803 14.7803C17.4874 15.0732 17.0126 15.0732 16.7197 14.7803C16.4268 14.4874 16.4268 14.0126 16.7197 13.7197L18.4393 12L16.7197 10.2803C16.4268 9.98743 16.4268 9.51256 16.7197 9.21967Z" fill="#09090B"/>
</svg>
