<svg width="16" height="16" viewBox="0 0 16 16" fill="none" xmlns="http://www.w3.org/2000/svg">
<path fill-rule="evenodd" clip-rule="evenodd" d="M2 1.5C2.27614 1.5 2.5 1.72386 2.5 2V2.35961L3.72546 2.05325C5.23075 1.67692 6.82101 1.85149 8.20883 2.5454L8.28064 2.5813C9.43146 3.15671 10.7476 3.31044 12 3.01575L14.0731 2.52797C14.231 2.49081 14.3972 2.53259 14.5187 2.64003C14.6403 2.74747 14.7022 2.90722 14.6847 3.06852C14.5626 4.19542 14.5 5.3403 14.5 6.5C14.5 7.66936 14.5637 8.82367 14.6878 9.95966C14.7152 10.2107 14.5511 10.4428 14.3052 10.5007L12.2291 10.9892C10.7489 11.3374 9.19349 11.1558 7.83343 10.4757L7.76162 10.4398C6.58731 9.85267 5.24171 9.70496 3.96799 10.0234L2.5 10.3904V14C2.5 14.2761 2.27614 14.5 2 14.5C1.72386 14.5 1.5 14.2761 1.5 14V2C1.5 1.72386 1.72386 1.5 2 1.5ZM2.5 9.35961L3.72546 9.05325C5.23075 8.67692 6.82101 8.85149 8.20883 9.5454L8.28064 9.5813C9.43146 10.1567 10.7476 10.3104 12 10.0157L13.6486 9.62785C13.5503 8.59836 13.5 7.55498 13.5 6.5C13.5 5.54368 13.5413 4.5969 13.6223 3.66135L12.2291 3.98917C10.7489 4.33744 9.19349 4.15576 7.83343 3.47573L7.76162 3.43983C6.58731 2.85267 5.24171 2.70496 3.96799 3.02339L2.5 3.39039V9.35961Z" fill="#71717A"/>
</svg>
