<svg width="24" height="24" viewBox="0 0 24 24" fill="none" xmlns="http://www.w3.org/2000/svg">
<path fill-rule="evenodd" clip-rule="evenodd" d="M6.00006 12C6.00006 15.3137 8.68635 18 12.0001 18C15.3138 18 18.0001 15.3137 18.0001 12C18.0001 8.68629 15.3138 6 12.0001 6C8.68635 6 6.00006 8.68629 6.00006 12ZM12.0001 4C7.58178 4 4.00006 7.58172 4.00006 12C4.00006 16.4183 7.58178 20 12.0001 20C16.4183 20 20.0001 16.4183 20.0001 12C20.0001 7.58172 16.4183 4 12.0001 4Z" fill="#DC2626"/>
<path d="M11.9942 7.99976C12.4084 7.99976 12.7442 8.33554 12.7442 8.74976V12.4998C12.7442 12.914 12.4084 13.2498 11.9942 13.2498C11.58 13.2498 11.2442 12.914 11.2442 12.4998V8.74976C11.2442 8.33554 11.58 7.99976 11.9942 7.99976Z" fill="#DC2626"/>
<path d="M11.2462 15.2423C11.2462 14.828 11.5819 14.4923 11.9962 14.4923H12.0037C12.4179 14.4923 12.7537 14.828 12.7537 15.2423V15.2498C12.7537 15.664 12.4179 15.9998 12.0037 15.9998H11.9962C11.5819 15.9998 11.2462 15.664 11.2462 15.2498V15.2423Z" fill="#DC2626"/>
</svg>
