<svg width="32" height="32" viewBox="0 0 32 32" fill="none" xmlns="http://www.w3.org/2000/svg">
<path fill-rule="evenodd" clip-rule="evenodd" d="M2 10C2 7.79086 3.79086 6 6 6H18C20.2091 6 22 7.79086 22 10V11.5858L26.5858 7C27.8457 5.74007 30 6.63241 30 8.41421V23.5858C30 25.3676 27.8457 26.2599 26.5858 25L22 20.4142V22C22 24.2091 20.2091 26 18 26H6C3.79086 26 2 24.2091 2 22V10ZM22 17.5858L28 23.5858V8.41421L22 14.4142V17.5858ZM6 8C4.89543 8 4 8.89543 4 10V22C4 23.1046 4.89543 24 6 24H18C19.1046 24 20 23.1046 20 22V10C20 8.89543 19.1046 8 18 8H6Z" fill="#71717A"/>
</svg>
