<svg width="16" height="16" viewBox="0 0 16 16" fill="none" xmlns="http://www.w3.org/2000/svg">
<path fill-rule="evenodd" clip-rule="evenodd" d="M12 1C12.2294 1 12.4294 1.15615 12.4851 1.37873L12.6576 2.06904C12.8144 2.69604 13.304 3.1856 13.931 3.34235L14.6213 3.51493C14.8439 3.57057 15 3.77057 15 4C15 4.22943 14.8439 4.42943 14.6213 4.48507L13.931 4.65765C13.304 4.8144 12.8144 5.30396 12.6576 5.93096L12.4851 6.62127C12.4294 6.84385 12.2294 7 12 7C11.7706 7 11.5706 6.84385 11.5149 6.62127L11.3424 5.93096C11.1856 5.30396 10.696 4.8144 10.069 4.65765L9.37873 4.48507C9.15615 4.42943 9 4.22943 9 4C9 3.77057 9.15615 3.57057 9.37873 3.51493L10.069 3.34235C10.696 3.1856 11.1856 2.69604 11.3424 2.06904L11.5149 1.37873C11.5706 1.15615 11.7706 1 12 1ZM12 3.0641C11.7689 3.44741 11.4474 3.76895 11.0641 4C11.4474 4.23106 11.7689 4.55259 12 4.9359C12.2311 4.55259 12.5526 4.23106 12.9359 4C12.5526 3.76895 12.2311 3.44741 12 3.0641ZM6 3C6.22324 3 6.41943 3.14799 6.48076 3.36264L7.02289 5.2601C7.26018 6.09062 7.90938 6.73982 8.7399 6.97711L10.6374 7.51924C10.852 7.58057 11 7.77676 11 8C11 8.22324 10.852 8.41943 10.6374 8.48076L8.7399 9.02289C7.90938 9.26019 7.26018 9.90938 7.02289 10.7399L6.48076 12.6374C6.41943 12.852 6.22324 13 6 13C5.77676 13 5.58057 12.852 5.51924 12.6374L4.97711 10.7399C4.73982 9.90938 4.09062 9.26019 3.2601 9.02289L1.36264 8.48076C1.14799 8.41943 1 8.22324 1 8C1 7.77676 1.14799 7.58057 1.36264 7.51924L3.2601 6.97711C4.09062 6.73982 4.73982 6.09062 4.97711 5.2601L5.51924 3.36264C5.58057 3.14799 5.77676 3 6 3ZM6 5.32003L5.93863 5.53482C5.60642 6.69755 4.69755 7.60642 3.53482 7.93863L3.32003 8L3.53482 8.06137C4.69755 8.39358 5.60642 9.30245 5.93863 10.4652L6 10.68L6.06137 10.4652C6.39358 9.30245 7.30245 8.39358 8.46518 8.06137L8.67997 8L8.46518 7.93863C7.30245 7.60642 6.39358 6.69755 6.06137 5.53482L6 5.32003ZM11 10C11.2152 10 11.4063 10.1377 11.4743 10.3419L11.7372 11.1304C11.8367 11.429 12.071 11.6633 12.3696 11.7628L13.1581 12.0257C13.3623 12.0937 13.5 12.2848 13.5 12.5C13.5 12.7152 13.3623 12.9063 13.1581 12.9743L12.3696 13.2372C12.071 13.3367 11.8367 13.571 11.7372 13.8696L11.4743 14.6581C11.4063 14.8623 11.2152 15 11 15C10.7848 15 10.5937 14.8623 10.5257 14.6581L10.2628 13.8696C10.1633 13.571 9.92898 13.3367 9.63037 13.2372L8.84189 12.9743C8.63772 12.9063 8.5 12.7152 8.5 12.5C8.5 12.2848 8.63772 12.0937 8.84189 12.0257L9.63037 11.7628C9.92898 11.6633 10.1633 11.429 10.2628 11.1304L10.5257 10.3419C10.5937 10.1377 10.7848 10 11 10ZM11 11.8902C10.8435 12.1353 10.6353 12.3435 10.3902 12.5C10.6353 12.6565 10.8435 12.8647 11 13.1098C11.1565 12.8647 11.3647 12.6565 11.6098 12.5C11.3647 12.3435 11.1565 12.1353 11 11.8902Z" fill="#09090B"/>
</svg>
