<svg width="20" height="20" viewBox="0 0 20 20" fill="none" xmlns="http://www.w3.org/2000/svg">
<path fill-rule="evenodd" clip-rule="evenodd" d="M1.25 3.75C1.25 2.36929 2.36929 1.25 3.75 1.25H4.89302C5.61 1.25 6.23498 1.73796 6.40887 2.43354L7.33037 6.11952C7.48284 6.72942 7.25495 7.37129 6.75202 7.74849L5.674 8.557C5.56206 8.64096 5.53772 8.7639 5.56917 8.84974C6.51542 11.4329 8.5671 13.4846 11.1503 14.4308C11.2361 14.4623 11.359 14.4379 11.443 14.326L12.2515 13.248C12.6287 12.7451 13.2706 12.5172 13.8805 12.6696L17.5665 13.5911C18.262 13.765 18.75 14.39 18.75 15.107V16.25C18.75 17.6307 17.6307 18.75 16.25 18.75H14.375C7.12626 18.75 1.25 12.8737 1.25 5.625V3.75ZM3.75 2.5C3.05964 2.5 2.5 3.05964 2.5 3.75V5.625C2.5 12.1834 7.81662 17.5 14.375 17.5H16.25C16.9404 17.5 17.5 16.9404 17.5 16.25V15.107C17.5 14.9636 17.4024 14.8386 17.2633 14.8038L13.5773 13.8823C13.4553 13.8518 13.327 13.8974 13.2515 13.998L12.443 15.076C12.0577 15.5898 11.3689 15.8422 10.7203 15.6046C7.79189 14.5318 5.46817 12.2081 4.39544 9.27969C4.15784 8.63109 4.41021 7.94235 4.924 7.557L6.00202 6.74849C6.1026 6.67305 6.14818 6.54467 6.11769 6.42269L5.19619 2.73671C5.16141 2.59759 5.03642 2.5 4.89302 2.5H3.75ZM12.6831 2.68306C12.9271 2.43898 13.3229 2.43898 13.5669 2.68306L15 4.11612L16.4331 2.68306C16.6771 2.43898 17.0729 2.43898 17.3169 2.68306C17.561 2.92714 17.561 3.32286 17.3169 3.56694L15.8839 5L17.3169 6.43306C17.561 6.67714 17.561 7.07286 17.3169 7.31694C17.0729 7.56102 16.6771 7.56102 16.4331 7.31694L15 5.88388L13.5669 7.31694C13.3229 7.56102 12.9271 7.56102 12.6831 7.31694C12.439 7.07286 12.439 6.67714 12.6831 6.43306L14.1161 5L12.6831 3.56694C12.439 3.32286 12.439 2.92714 12.6831 2.68306Z" fill="#09090B"/>
</svg>
