<svg width="20" height="20" viewBox="0 0 20 20" fill="none" xmlns="http://www.w3.org/2000/svg">
<path fill-rule="evenodd" clip-rule="evenodd" d="M3.15962 2.44854C5.38388 2.07135 7.66928 1.875 10.0001 1.875C12.3308 1.875 14.6162 2.07134 16.8404 2.44852C17.5924 2.57604 18.125 3.23063 18.125 3.97835V4.84835C18.125 5.51139 17.8616 6.14727 17.3928 6.61612L12.8661 11.1428C12.6317 11.3772 12.5 11.6951 12.5 12.0266V14.4662C12.5 15.4131 11.965 16.2788 11.118 16.7023L8.40451 18.059C8.21077 18.1559 7.98068 18.1455 7.79642 18.0317C7.61216 17.9178 7.5 17.7166 7.5 17.5V12.0266C7.5 11.6951 7.3683 11.3772 7.13388 11.1428L2.60723 6.61612C2.13839 6.14728 1.875 5.51139 1.875 4.84835V3.97837C1.875 3.23065 2.40764 2.57606 3.15962 2.44854ZM10.0001 3.125C7.7396 3.125 5.52411 3.31541 3.36861 3.68094C3.23249 3.70403 3.125 3.8253 3.125 3.97837V4.84835C3.125 5.17987 3.2567 5.49781 3.49112 5.73223L8.01777 10.2589C8.48661 10.7277 8.75 11.3636 8.75 12.0266V16.4887L10.559 15.5842C10.9825 15.3725 11.25 14.9397 11.25 14.4662V12.0266C11.25 11.3636 11.5134 10.7277 11.9822 10.2589L16.5089 5.73223C16.7433 5.49781 16.875 5.17987 16.875 4.84835V3.97835C16.875 3.82528 16.7675 3.70401 16.6314 3.68092C14.4759 3.31541 12.2605 3.125 10.0001 3.125Z" fill="#09090B"/>
</svg>
