<svg width="20" height="20" viewBox="0 0 20 20" fill="none" xmlns="http://www.w3.org/2000/svg">
<path d="M2.94194 4.03668C2.69786 3.7922 2.69786 3.39582 2.94194 3.15135C3.18602 2.90687 3.58175 2.90687 3.82583 3.15135L17.0841 16.4313C17.3282 16.6758 17.3282 17.0722 17.0841 17.3166C16.84 17.5611 16.4443 17.5611 16.2002 17.3166L2.94194 4.03668Z" fill="#71717A"/>
<path d="M5.1976 6.30179C5.69931 4.81912 7.10025 3.75205 8.75 3.75205C10.4857 3.75205 11.9475 4.93378 12.3741 6.53885C12.4182 6.7049 12.5286 6.84548 12.6792 6.92763C12.8299 7.00979 13.0077 7.02629 13.1709 6.97328C13.3525 6.91429 13.5469 6.88216 13.75 6.88216C14.7855 6.88216 15.625 7.72301 15.625 8.76024C15.625 8.9793 15.5878 9.18832 15.5199 9.38214C15.4078 9.70247 15.5709 10.054 15.8877 10.1746C16.8312 10.5336 17.5 11.4475 17.5 12.5164C17.5 13.8993 16.3807 15.0205 15 15.0205H13.902L15.1491 16.2696C17.1511 16.1912 18.75 14.5408 18.75 12.5164C18.75 11.1101 17.9787 9.88552 16.8381 9.24185C16.8624 9.08464 16.875 8.92377 16.875 8.76024C16.875 7.03152 15.4759 5.63012 13.75 5.63012C13.6299 5.63012 13.5113 5.63693 13.3944 5.65022C12.6578 3.80448 10.8566 2.5 8.75 2.5C6.7629 2.5 5.04654 3.66106 4.24022 5.34284L5.1976 6.30179Z" fill="#71717A"/>
<path d="M5.05676 8.16345L3.78746 6.89207C3.76273 7.09398 3.75 7.29959 3.75 7.50819C3.75 7.64746 3.75569 7.78551 3.76687 7.92211C2.28022 8.62171 1.25 10.1349 1.25 11.8904C1.25 14.3106 3.20875 16.2725 5.625 16.2725H13.1526L11.9026 15.0205H5.625C3.89911 15.0205 2.5 13.6191 2.5 11.8904C2.5 10.5051 3.39886 9.32841 4.64596 8.91675C4.94344 8.81855 5.12242 8.51495 5.06459 8.20661C5.0619 8.19225 5.05929 8.17787 5.05676 8.16345Z" fill="#71717A"/>
</svg>
