<svg width="12" height="12" viewBox="0 0 12 12" fill="none" xmlns="http://www.w3.org/2000/svg">
<path fill-rule="evenodd" clip-rule="evenodd" d="M3.375 1.125C3.58211 1.125 3.75 1.29289 3.75 1.5V2.25H8.25V1.5C8.25 1.29289 8.41789 1.125 8.625 1.125C8.83211 1.125 9 1.29289 9 1.5V2.25H9.375C10.2034 2.25 10.875 2.92157 10.875 3.75V9.375C10.875 10.2034 10.2034 10.875 9.375 10.875H2.625C1.79657 10.875 1.125 10.2034 1.125 9.375V3.75C1.125 2.92157 1.79657 2.25 2.625 2.25H3V1.5C3 1.29289 3.16789 1.125 3.375 1.125ZM2.625 3C2.21079 3 1.875 3.33579 1.875 3.75V4.32567C2.09563 4.19805 2.35178 4.125 2.625 4.125H9.375C9.64822 4.125 9.90437 4.19805 10.125 4.32567V3.75C10.125 3.33579 9.78921 3 9.375 3H2.625ZM10.125 5.625C10.125 5.21079 9.78921 4.875 9.375 4.875H2.625C2.21079 4.875 1.875 5.21079 1.875 5.625V9.375C1.875 9.78921 2.21079 10.125 2.625 10.125H9.375C9.78921 10.125 10.125 9.78921 10.125 9.375V5.625Z" fill="#71717A"/>
</svg>
