<svg width="16" height="16" viewBox="0 0 16 16" fill="none" xmlns="http://www.w3.org/2000/svg">
<path fill-rule="evenodd" clip-rule="evenodd" d="M6.21 5.05577C8.1304 2.58864 11.1297 1.00014 14.5 1C14.6326 0.999994 14.7598 1.05267 14.8536 1.14644C14.9473 1.24021 15 1.36739 15 1.5C15 4.87042 13.4115 7.87 10.9443 9.79057C10.981 10.0219 11 10.2589 11 10.5C11 12.9853 8.98528 15 6.5 15C6.22386 15 6 14.7761 6 14.5V11.7456C5.99383 11.7412 5.98775 11.7366 5.98176 11.7318C5.34708 11.2286 4.772 10.6535 4.26875 10.0188C4.26385 10.0127 4.2591 10.0064 4.25452 10H1.5C1.22386 10 1 9.77614 1 9.5C1 7.01472 3.01472 5 5.5 5C5.74132 5 5.97848 5.01904 6.21 5.05577ZM5.55427 6.00041C5.53622 6.00014 5.51813 6 5.5 6C3.73676 6 2.27806 7.30385 2.03544 9H4.30001C4.56245 7.92569 4.99008 6.91633 5.55427 6.00041ZM5.1957 9.57399C5.56763 10.0208 5.97979 10.4329 6.42658 10.8049C7.77715 10.5268 9.02328 9.96181 10.0986 9.17603C12.3353 7.54163 13.8297 4.95513 13.9864 2.01367C11.045 2.17047 8.45878 3.66485 6.82453 5.90148C6.03871 6.97695 5.47376 8.22325 5.1957 9.57399ZM7 11.7007V13.9646C8.69615 13.7219 10 12.2632 10 10.5C10 10.4821 9.99986 10.4642 9.9996 10.4464C9.08368 11.0106 8.07431 11.4382 7 11.7007ZM10 5.5C9.72386 5.5 9.5 5.72386 9.5 6C9.5 6.27614 9.72386 6.5 10 6.5C10.2761 6.5 10.5 6.27614 10.5 6C10.5 5.72386 10.2761 5.5 10 5.5ZM8.5 6C8.5 5.17157 9.17157 4.5 10 4.5C10.8284 4.5 11.5 5.17157 11.5 6C11.5 6.82843 10.8284 7.5 10 7.5C9.17157 7.5 8.5 6.82843 8.5 6ZM3.60871 10.7949C3.77383 11.0162 3.72825 11.3295 3.50691 11.4946C2.89479 11.9512 2.5 12.6795 2.5 13.5C3.32054 13.5 4.04876 13.1052 4.50539 12.4931C4.67051 12.2717 4.98379 12.2262 5.20513 12.3913C5.42647 12.5564 5.47205 12.8697 5.30693 13.091C4.66968 13.9453 3.64956 14.5 2.5 14.5C2.3163 14.5 2.13558 14.4858 1.95895 14.4584C1.74383 14.4249 1.57506 14.2562 1.54164 14.0411C1.5142 13.8644 1.5 13.6837 1.5 13.5C1.5 12.3504 2.05473 11.3303 2.90897 10.6931C3.13031 10.5279 3.44359 10.5735 3.60871 10.7949Z" fill="#71717A"/>
</svg>
