<svg width="24" height="24" viewBox="0 0 24 24" fill="none" xmlns="http://www.w3.org/2000/svg">
<path d="M5.03528 11.2962C5.08878 10.7678 4.72051 10.2938 4.20345 10.2089C4.56247 8.65186 5.38263 7.23131 6.55152 6.14188C6.88363 6.54719 7.47821 6.62915 7.90913 6.31859C8.57757 5.83684 9.34391 5.46533 10.1903 5.23855C11.0366 5.01178 11.886 4.95034 12.7058 5.03333C13.2342 5.08683 13.7082 4.71856 13.7931 4.20149C15.3502 4.56052 16.7707 5.38067 17.8601 6.54957C17.4548 6.88168 17.3729 7.47626 17.6834 7.90717C18.1652 8.57562 18.5367 9.34196 18.7635 10.1883C18.9902 11.0346 19.0517 11.8841 18.9687 12.7038C18.9152 13.2323 19.2835 13.7062 19.8005 13.7912C19.4415 15.3482 18.6213 16.7688 17.4524 17.8582C17.1203 17.4529 16.5258 17.3709 16.0948 17.6815C15.4264 18.1632 14.6601 18.5347 13.8137 18.7615C12.9674 18.9883 12.118 19.0497 11.2982 18.9667C10.7697 18.9132 10.2958 19.2815 10.2108 19.7986C8.65381 19.4395 7.23326 18.6194 6.14383 17.4505C6.54915 17.1184 6.63111 16.5238 6.32054 16.0929C5.83879 15.4244 5.46728 14.6581 5.2405 13.8118C5.01373 12.9654 4.9523 12.116 5.03528 11.2962Z" stroke="#D97706" stroke-width="2" stroke-linecap="round" stroke-linejoin="round" stroke-dasharray="6 7"/>
</svg>
