<svg width="24" height="24" viewBox="0 0 24 24" fill="none" xmlns="http://www.w3.org/2000/svg">
<path fill-rule="evenodd" clip-rule="evenodd" d="M17.4524 17.8604C17.2095 18.0868 16.9516 18.2989 16.6795 18.4949C15.9143 19.0465 15.0378 19.471 14.0725 19.7296C13.1073 19.9883 12.136 20.0589 11.1975 19.9638C10.8639 19.9301 10.5344 19.8754 10.2108 19.8008C9.8834 19.7253 9.56201 19.6294 9.24847 19.5141C9.47067 18.5456 10.3846 17.8713 11.3989 17.974C12.0999 18.045 12.8275 17.9927 13.5549 17.7978C14.2823 17.6029 14.9385 17.2844 15.5102 16.8724C16.3373 16.2763 17.4658 16.4033 18.1426 17.131C17.9286 17.3875 17.6983 17.6313 17.4524 17.8604ZM17.1307 5.86166C16.403 6.53838 16.2761 7.66695 16.8722 8.49405C17.2841 9.06567 17.6026 9.72187 17.7975 10.4493C17.9925 11.1768 18.0447 11.9043 17.9738 12.6053C17.8711 13.6196 18.5453 14.5335 19.5139 14.7557C19.6291 14.4422 19.725 14.1208 19.8005 13.7934C19.8751 13.4698 19.9298 13.1404 19.9636 12.8067C20.0586 11.8682 19.988 10.8969 19.7294 9.93168C19.4708 8.96644 19.0462 8.08996 18.4947 7.32469C18.2986 7.05266 18.0865 6.79468 17.8601 6.55177C17.631 6.30596 17.3873 6.07558 17.1307 5.86166ZM5.86141 6.87348C6.53814 7.6012 7.66671 7.72814 8.49381 7.13205C9.06542 6.72008 9.72163 6.40159 10.4491 6.20667C11.1765 6.01176 11.904 5.95948 12.6051 6.03044C13.6194 6.13312 14.5333 5.4589 14.7555 4.49032C14.442 4.37508 14.1206 4.27919 13.7931 4.20369C13.4696 4.12908 13.1401 4.07438 12.8065 4.04061C11.868 3.9456 10.8967 4.01619 9.93143 4.27482C8.9662 4.53346 8.08972 4.95799 7.32445 5.50952C7.05242 5.70558 6.79444 5.91768 6.55152 6.14408C6.30572 6.37317 6.07533 6.61691 5.86141 6.87348ZM6.87324 18.1428C7.60095 17.4661 7.7279 16.3375 7.13181 15.5104C6.71984 14.9388 6.40135 14.2826 6.20643 13.5551C6.01151 12.8277 5.95923 12.1002 6.0302 11.3991C6.13288 10.3848 5.45865 9.47092 4.49008 9.24871C4.37484 9.56225 4.27895 9.88364 4.20345 10.2111C4.12883 10.5346 4.07414 10.8641 4.04037 11.1977C3.94536 12.1362 4.01594 13.1075 4.27458 14.0728C4.53321 15.038 4.95775 15.9145 5.50928 16.6798C5.70533 16.9518 5.91743 17.2098 6.14383 17.4527C6.37293 17.6985 6.61667 17.9289 6.87324 18.1428Z" fill="#D97706"/>
</svg>
