<svg width="20" height="20" viewBox="0 0 20 20" fill="none" xmlns="http://www.w3.org/2000/svg">
<path fill-rule="evenodd" clip-rule="evenodd" d="M17.2254 2.77459C16.8593 2.40847 16.2657 2.40847 15.8996 2.77459L14.9353 3.73889L16.2611 5.06472L17.2254 4.10041C17.5915 3.7343 17.5915 3.1407 17.2254 2.77459ZM15.3772 5.9486L14.0514 4.62278L7.05071 11.6235C6.68357 11.9906 6.4137 12.4434 6.26547 12.941L5.92882 14.0712L7.05898 13.7345C7.55658 13.5863 8.00941 13.3164 8.37654 12.9493L15.3772 5.9486ZM15.0157 1.8907C15.87 1.03643 17.255 1.03643 18.1093 1.8907C18.9636 2.74498 18.9636 4.13002 18.1093 4.9843L9.26043 13.8332C8.74644 14.3472 8.11248 14.725 7.41584 14.9325L5.17843 15.599C4.95849 15.6645 4.72033 15.6042 4.55806 15.4419C4.39578 15.2797 4.33549 15.0415 4.40101 14.8216L5.06749 12.5842C5.27501 11.8875 5.65284 11.2536 6.16683 10.7396L15.0157 1.8907ZM4.375 5.62499C3.68464 5.62499 3.125 6.18464 3.125 6.87499V15.625C3.125 16.3154 3.68464 16.875 4.375 16.875H13.125C13.8154 16.875 14.375 16.3154 14.375 15.625V11.6667C14.375 11.3215 14.6548 11.0417 15 11.0417C15.3452 11.0417 15.625 11.3215 15.625 11.6667V15.625C15.625 17.0057 14.5057 18.125 13.125 18.125H4.375C2.99429 18.125 1.875 17.0057 1.875 15.625V6.87499C1.875 5.49428 2.99429 4.37499 4.375 4.37499H8.33333C8.67851 4.37499 8.95833 4.65482 8.95833 4.99999C8.95833 5.34517 8.67851 5.62499 8.33333 5.62499H4.375Z" fill="#09090B"/>
</svg>
