<svg width="16" height="16" viewBox="0 0 16 16" fill="none" xmlns="http://www.w3.org/2000/svg">
<path fill-rule="evenodd" clip-rule="evenodd" d="M1.5 3C1.5 2.72386 1.72386 2.5 2 2.5H11.5C11.7761 2.5 12 2.72386 12 3C12 3.27614 11.7761 3.5 11.5 3.5H2C1.72386 3.5 1.5 3.27614 1.5 3ZM1.5 6C1.5 5.72386 1.72386 5.5 2 5.5H8.5C8.77614 5.5 9 5.72386 9 6C9 6.27614 8.77614 6.5 8.5 6.5H2C1.72386 6.5 1.5 6.27614 1.5 6ZM11 7.20711L9.35355 8.85355C9.15829 9.04882 8.84171 9.04882 8.64645 8.85355C8.45118 8.65829 8.45118 8.34171 8.64645 8.14645L11.1464 5.64645C11.3417 5.45118 11.6583 5.45118 11.8536 5.64645L14.3536 8.14645C14.5488 8.34171 14.5488 8.65829 14.3536 8.85355C14.1583 9.04882 13.8417 9.04882 13.6464 8.85355L12 7.20711V14C12 14.2761 11.7761 14.5 11.5 14.5C11.2239 14.5 11 14.2761 11 14V7.20711ZM1.5 9C1.5 8.72386 1.72386 8.5 2 8.5H5.5C5.77614 8.5 6 8.72386 6 9C6 9.27614 5.77614 9.5 5.5 9.5H2C1.72386 9.5 1.5 9.27614 1.5 9Z" fill="#27272A"/>
</svg>
