<svg width="16" height="16" viewBox="0 0 16 16" fill="none" xmlns="http://www.w3.org/2000/svg">
<path fill-rule="evenodd" clip-rule="evenodd" d="M1 4C1 3.17157 1.67157 2.5 2.5 2.5H13.5C14.3284 2.5 15 3.17157 15 4V12C15 12.8284 14.3284 13.5 13.5 13.5H2.5C1.67157 13.5 1 12.8284 1 12V4ZM2 10.7071V12C2 12.2761 2.22386 12.5 2.5 12.5H13.5C13.7761 12.5 14 12.2761 14 12V10.7071L12.2071 8.91421C11.8166 8.52369 11.1834 8.52369 10.7929 8.91421L10.2071 9.5L10.8536 10.1464C11.0488 10.3417 11.0488 10.6583 10.8536 10.8536C10.6583 11.0488 10.3417 11.0488 10.1464 10.8536L6.70711 7.41421C6.31658 7.02369 5.68342 7.02369 5.29289 7.41421L2 10.7071ZM9.5 8.79289L7.41421 6.70711C6.63317 5.92606 5.36684 5.92606 4.58579 6.70711L2 9.29289V4C2 3.72386 2.22386 3.5 2.5 3.5H13.5C13.7761 3.5 14 3.72386 14 4V9.29289L12.9142 8.20711C12.1332 7.42606 10.8668 7.42606 10.0858 8.20711L9.5 8.79289ZM8.75 5.5C8.75 5.08579 9.08579 4.75 9.5 4.75C9.91421 4.75 10.25 5.08579 10.25 5.5C10.25 5.91421 9.91421 6.25 9.5 6.25C9.08579 6.25 8.75 5.91421 8.75 5.5Z" fill="#71717A"/>
</svg>
