<svg width="21" height="20" viewBox="0 0 21 20" fill="none" xmlns="http://www.w3.org/2000/svg">
<path fill-rule="evenodd" clip-rule="evenodd" d="M6.75 3.125C6.05964 3.125 5.5 3.68464 5.5 4.375L5.5 15.625C5.5 16.3154 6.05964 16.875 6.75 16.875H11.75C12.4404 16.875 13 16.3154 13 15.625V12.5C13 12.1548 13.2798 11.875 13.625 11.875C13.9702 11.875 14.25 12.1548 14.25 12.5V15.625C14.25 17.0057 13.1307 18.125 11.75 18.125H6.75C5.36929 18.125 4.25 17.0057 4.25 15.625L4.25 4.375C4.25 2.99429 5.36929 1.875 6.75 1.875L11.75 1.875C13.1307 1.875 14.25 2.99429 14.25 4.375V7.5C14.25 7.84518 13.9702 8.125 13.625 8.125C13.2798 8.125 13 7.84518 13 7.5V4.375C13 3.68464 12.4404 3.125 11.75 3.125L6.75 3.125ZM15.6831 7.05806C15.9271 6.81398 16.3229 6.81398 16.5669 7.05806L19.0669 9.55806C19.311 9.80214 19.311 10.1979 19.0669 10.4419L16.5669 12.9419C16.3229 13.186 15.9271 13.186 15.6831 12.9419C15.439 12.6979 15.439 12.3021 15.6831 12.0581L17.1161 10.625H8C7.65482 10.625 7.375 10.3452 7.375 10C7.375 9.65482 7.65482 9.375 8 9.375L17.1161 9.375L15.6831 7.94194C15.439 7.69787 15.439 7.30214 15.6831 7.05806Z" fill="#DC2626"/>
</svg>
