<svg width="16" height="16" viewBox="0 0 16 16" fill="none" xmlns="http://www.w3.org/2000/svg">
<path fill-rule="evenodd" clip-rule="evenodd" d="M7 2.5C4.51472 2.5 2.5 4.51472 2.5 7C2.5 9.48528 4.51472 11.5 7 11.5C8.24278 11.5 9.36709 10.9969 10.182 10.182C10.9969 9.36709 11.5 8.24278 11.5 7C11.5 4.51472 9.48528 2.5 7 2.5ZM1.5 7C1.5 3.96243 3.96243 1.5 7 1.5C10.0376 1.5 12.5 3.96243 12.5 7C12.5 8.33855 12.0213 9.56604 11.2266 10.5195L14.3536 13.6464C14.5488 13.8417 14.5488 14.1583 14.3536 14.3536C14.1583 14.5488 13.8417 14.5488 13.6464 14.3536L10.5195 11.2266C9.56604 12.0213 8.33855 12.5 7 12.5C3.96243 12.5 1.5 10.0376 1.5 7ZM7 4.5C7.27614 4.5 7.5 4.72386 7.5 5V6.5H9C9.27614 6.5 9.5 6.72386 9.5 7C9.5 7.27614 9.27614 7.5 9 7.5H7.5V9C7.5 9.27614 7.27614 9.5 7 9.5C6.72386 9.5 6.5 9.27614 6.5 9V7.5H5C4.72386 7.5 4.5 7.27614 4.5 7C4.5 6.72386 4.72386 6.5 5 6.5H6.5V5C6.5 4.72386 6.72386 4.5 7 4.5Z" fill="#27272A"/>
</svg>
